<?xml version="1.0" encoding="UTF-8"?>
<svg xmlns="http://www.w3.org/2000/svg" xmlns:xlink="http://www.w3.org/1999/xlink" stroke-dasharray="none" shape-rendering="auto" font-family="'Dialog'" width="898" text-rendering="auto" fill-opacity="1" contentScriptType="text/ecmascript" color-interpolation="auto" color-rendering="auto" preserveAspectRatio="xMidYMid meet" font-size="12" viewBox="0 0 898 730" fill="black" stroke="black" image-rendering="auto" stroke-miterlimit="10" zoomAndPan="magnify" version="1.0" stroke-linecap="square" stroke-linejoin="miter" contentStyleType="text/css" font-style="normal" height="730" stroke-width="1" stroke-dashoffset="0" font-weight="normal" stroke-opacity="1">
  <!--Generated by the Batik Graphics2D SVG Generator-->
  <defs id="genericDefs" />
  <g>
    <defs id="defs1">
      <clipPath clipPathUnits="userSpaceOnUse" id="clipPath1">
        <path d="M66 9 L138 9 L138 41 L66 41 L66 9 Z" />
      </clipPath>
      <clipPath clipPathUnits="userSpaceOnUse" id="clipPath2">
        <path d="M66 9 L142 9 L142 41 L66 41 L66 9 Z" />
      </clipPath>
      <clipPath clipPathUnits="userSpaceOnUse" id="clipPath3">
        <path d="M96 39 L108 39 L108 721 L96 721 L96 39 Z" />
      </clipPath>
      <clipPath clipPathUnits="userSpaceOnUse" id="clipPath4">
        <path d="M729 9 L881 9 L881 61 L729 61 L729 9 Z" />
      </clipPath>
      <clipPath clipPathUnits="userSpaceOnUse" id="clipPath5">
        <path d="M729 9 L884 9 L884 61 L729 61 L729 9 Z" />
      </clipPath>
      <clipPath clipPathUnits="userSpaceOnUse" id="clipPath6">
        <path d="M729 9 L885 9 L885 61 L729 61 L729 9 Z" />
      </clipPath>
      <clipPath clipPathUnits="userSpaceOnUse" id="clipPath7">
        <path d="M799 59 L811 59 L811 721 L799 721 L799 59 Z" />
      </clipPath>
      <clipPath clipPathUnits="userSpaceOnUse" id="clipPath8">
        <path d="M794 89 L816 89 L816 131 L794 131 L794 89 Z" />
      </clipPath>
      <clipPath clipPathUnits="userSpaceOnUse" id="clipPath9">
        <path d="M815 89 L869 89 L869 116 L815 116 L815 89 Z" />
      </clipPath>
      <clipPath clipPathUnits="userSpaceOnUse" id="clipPath10">
        <path d="M794 209 L816 209 L816 251 L794 251 L794 209 Z" />
      </clipPath>
      <clipPath clipPathUnits="userSpaceOnUse" id="clipPath11">
        <path d="M815 209 L869 209 L869 236 L815 236 L815 209 Z" />
      </clipPath>
      <clipPath clipPathUnits="userSpaceOnUse" id="clipPath12">
        <path d="M794 329 L816 329 L816 371 L794 371 L794 329 Z" />
      </clipPath>
      <clipPath clipPathUnits="userSpaceOnUse" id="clipPath13">
        <path d="M815 329 L869 329 L869 356 L815 356 L815 329 Z" />
      </clipPath>
      <clipPath clipPathUnits="userSpaceOnUse" id="clipPath14">
        <path d="M794 449 L816 449 L816 491 L794 491 L794 449 Z" />
      </clipPath>
      <clipPath clipPathUnits="userSpaceOnUse" id="clipPath15">
        <path d="M815 449 L869 449 L869 476 L815 476 L815 449 Z" />
      </clipPath>
      <clipPath clipPathUnits="userSpaceOnUse" id="clipPath16">
        <path d="M794 569 L816 569 L816 611 L794 611 L794 569 Z" />
      </clipPath>
      <clipPath clipPathUnits="userSpaceOnUse" id="clipPath17">
        <path d="M815 569 L869 569 L869 596 L815 596 L815 569 Z" />
      </clipPath>
      <clipPath clipPathUnits="userSpaceOnUse" id="clipPath18">
        <path d="M794 149 L816 149 L816 191 L794 191 L794 149 Z" />
      </clipPath>
      <clipPath clipPathUnits="userSpaceOnUse" id="clipPath19">
        <path d="M815 149 L857 149 L857 176 L815 176 L815 149 Z" />
      </clipPath>
      <clipPath clipPathUnits="userSpaceOnUse" id="clipPath20">
        <path d="M794 269 L816 269 L816 311 L794 311 L794 269 Z" />
      </clipPath>
      <clipPath clipPathUnits="userSpaceOnUse" id="clipPath21">
        <path d="M815 269 L857 269 L857 296 L815 296 L815 269 Z" />
      </clipPath>
      <clipPath clipPathUnits="userSpaceOnUse" id="clipPath22">
        <path d="M794 389 L816 389 L816 431 L794 431 L794 389 Z" />
      </clipPath>
      <clipPath clipPathUnits="userSpaceOnUse" id="clipPath23">
        <path d="M815 389 L857 389 L857 416 L815 416 L815 389 Z" />
      </clipPath>
      <clipPath clipPathUnits="userSpaceOnUse" id="clipPath24">
        <path d="M794 509 L816 509 L816 551 L794 551 L794 509 Z" />
      </clipPath>
      <clipPath clipPathUnits="userSpaceOnUse" id="clipPath25">
        <path d="M815 509 L857 509 L857 536 L815 536 L815 509 Z" />
      </clipPath>
      <clipPath clipPathUnits="userSpaceOnUse" id="clipPath26">
        <path d="M794 629 L816 629 L816 671 L794 671 L794 629 Z" />
      </clipPath>
      <clipPath clipPathUnits="userSpaceOnUse" id="clipPath27">
        <path d="M815 629 L857 629 L857 656 L815 656 L815 629 Z" />
      </clipPath>
      <clipPath clipPathUnits="userSpaceOnUse" id="clipPath28">
        <path d="M-1 -1 L899 -1 L899 731 L-1 731 L-1 -1 Z" />
      </clipPath>
      <clipPath clipPathUnits="userSpaceOnUse" id="clipPath29">
        <path d="M295 67 L607 67 L607 94 L295 94 L295 67 Z" />
      </clipPath>
      <clipPath clipPathUnits="userSpaceOnUse" id="clipPath30">
        <path d="M100 85 L112 85 L112 96 L100 96 L100 85 Z" />
      </clipPath>
      <clipPath clipPathUnits="userSpaceOnUse" id="clipPath31">
        <path d="M23 187 L879 187 L879 214 L23 214 L23 187 Z" />
      </clipPath>
      <clipPath clipPathUnits="userSpaceOnUse" id="clipPath32">
        <path d="M100 205 L112 205 L112 216 L100 216 L100 205 Z" />
      </clipPath>
      <clipPath clipPathUnits="userSpaceOnUse" id="clipPath33">
        <path d="M158 307 L744 307 L744 334 L158 334 L158 307 Z" />
      </clipPath>
      <clipPath clipPathUnits="userSpaceOnUse" id="clipPath34">
        <path d="M100 325 L112 325 L112 336 L100 336 L100 325 Z" />
      </clipPath>
      <clipPath clipPathUnits="userSpaceOnUse" id="clipPath35">
        <path d="M329 427 L573 427 L573 454 L329 454 L329 427 Z" />
      </clipPath>
      <clipPath clipPathUnits="userSpaceOnUse" id="clipPath36">
        <path d="M100 445 L112 445 L112 456 L100 456 L100 445 Z" />
      </clipPath>
      <clipPath clipPathUnits="userSpaceOnUse" id="clipPath37">
        <path d="M402 547 L500 547 L500 574 L402 574 L402 547 Z" />
      </clipPath>
      <clipPath clipPathUnits="userSpaceOnUse" id="clipPath38">
        <path d="M100 565 L112 565 L112 576 L100 576 L100 565 Z" />
      </clipPath>
      <clipPath clipPathUnits="userSpaceOnUse" id="clipPath39">
        <path d="M278 127 L625 127 L625 154 L278 154 L278 127 Z" />
      </clipPath>
      <clipPath clipPathUnits="userSpaceOnUse" id="clipPath40">
        <path d="M786 145 L798 145 L798 156 L786 156 L786 145 Z" />
      </clipPath>
      <clipPath clipPathUnits="userSpaceOnUse" id="clipPath41">
        <path d="M344 247 L559 247 L559 274 L344 274 L344 247 Z" />
      </clipPath>
      <clipPath clipPathUnits="userSpaceOnUse" id="clipPath42">
        <path d="M786 265 L798 265 L798 276 L786 276 L786 265 Z" />
      </clipPath>
      <clipPath clipPathUnits="userSpaceOnUse" id="clipPath43">
        <path d="M345 367 L558 367 L558 394 L345 394 L345 367 Z" />
      </clipPath>
      <clipPath clipPathUnits="userSpaceOnUse" id="clipPath44">
        <path d="M786 385 L798 385 L798 396 L786 396 L786 385 Z" />
      </clipPath>
      <clipPath clipPathUnits="userSpaceOnUse" id="clipPath45">
        <path d="M339 487 L564 487 L564 514 L339 514 L339 487 Z" />
      </clipPath>
      <clipPath clipPathUnits="userSpaceOnUse" id="clipPath46">
        <path d="M786 505 L798 505 L798 516 L786 516 L786 505 Z" />
      </clipPath>
      <clipPath clipPathUnits="userSpaceOnUse" id="clipPath47">
        <path d="M258 613 L645 613 L645 640 L258 640 L258 613 Z" />
      </clipPath>
      <clipPath clipPathUnits="userSpaceOnUse" id="clipPath48">
        <path d="M786 625 L798 625 L798 636 L786 636 L786 625 Z" />
      </clipPath>
    </defs>
    <g fill="rgb(238,201,142)" font-family="'Segoe UI'" stroke-linejoin="round" stroke="rgb(238,201,142)" stroke-width="0" stroke-miterlimit="0">
      <rect x="67" y="10" clip-path="url(#clipPath1)" width="70" height="30" stroke="none" />
    </g>
    <g stroke-width="0.1" font-family="'Segoe UI'" stroke-linecap="butt">
      <rect x="67" y="10" clip-path="url(#clipPath1)" fill="none" width="69" height="29" />
      <text x="72" font-size="19" y="33" clip-path="url(#clipPath2)" stroke="none" xml:space="preserve">System</text>
      <line clip-path="url(#clipPath3)" fill="none" x1="101" x2="101" y1="40" y2="720" stroke-dasharray="10,10" stroke-width="1.1" />
    </g>
    <g stroke-linecap="butt" fill="rgb(255,245,181)" font-family="'Segoe UI'" stroke-dasharray="10,10" stroke="rgb(255,245,181)" stroke-width="1.1">
      <rect x="730" y="10" clip-path="url(#clipPath4)" width="150" height="50" stroke="none" />
    </g>
    <g stroke-width="0.1" font-family="'Segoe UI'" stroke-linecap="butt">
      <rect x="730" y="10" clip-path="url(#clipPath4)" fill="none" width="149" height="49" />
      <text x="791" font-size="19" y="31" clip-path="url(#clipPath5)" stroke="none" xml:space="preserve">bill</text>
      <text x="730" font-size="19" y="56" clip-path="url(#clipPath6)" stroke="none" xml:space="preserve">: actAdministrator</text>
      <line clip-path="url(#clipPath7)" fill="none" x1="804" x2="804" y1="60" y2="720" stroke-dasharray="10,10" stroke-width="1.1" />
    </g>
    <g stroke-linecap="butt" fill="rgb(39,76,114)" font-family="'Segoe UI'" stroke-dasharray="10,10" stroke="rgb(39,76,114)" stroke-width="1.1">
      <rect x="795" y="90" clip-path="url(#clipPath8)" width="20" height="40" stroke="none" />
      <rect x="795" y="90" clip-path="url(#clipPath8)" fill="none" width="19" stroke-dasharray="none" height="39" stroke-width="0.1" />
    </g>
    <g stroke-width="0.1" font-size="19" font-family="'Segoe UI'" stroke-linecap="butt">
      <text xml:space="preserve" x="816" y="111" clip-path="url(#clipPath9)" stroke="none">out01</text>
      <rect x="795" y="210" clip-path="url(#clipPath10)" fill="rgb(39,76,114)" width="20" height="40" stroke="none" />
      <rect x="795" y="210" clip-path="url(#clipPath10)" fill="none" width="19" height="39" stroke="rgb(39,76,114)" />
      <text xml:space="preserve" x="816" y="231" clip-path="url(#clipPath11)" stroke="none">out02</text>
      <rect x="795" y="330" clip-path="url(#clipPath12)" fill="rgb(39,76,114)" width="20" height="40" stroke="none" />
      <rect x="795" y="330" clip-path="url(#clipPath12)" fill="none" width="19" height="39" stroke="rgb(39,76,114)" />
      <text xml:space="preserve" x="816" y="351" clip-path="url(#clipPath13)" stroke="none">out03</text>
      <rect x="795" y="450" clip-path="url(#clipPath14)" fill="rgb(39,76,114)" width="20" height="40" stroke="none" />
      <rect x="795" y="450" clip-path="url(#clipPath14)" fill="none" width="19" height="39" stroke="rgb(39,76,114)" />
      <text xml:space="preserve" x="816" y="471" clip-path="url(#clipPath15)" stroke="none">out04</text>
      <rect x="795" y="570" clip-path="url(#clipPath16)" fill="rgb(39,76,114)" width="20" height="40" stroke="none" />
      <rect x="795" y="570" clip-path="url(#clipPath16)" fill="none" width="19" height="39" stroke="rgb(39,76,114)" />
      <text xml:space="preserve" x="816" y="591" clip-path="url(#clipPath17)" stroke="none">out05</text>
      <rect x="795" y="150" clip-path="url(#clipPath18)" fill="rgb(194,239,255)" width="20" height="40" stroke="none" />
      <rect x="795" y="150" clip-path="url(#clipPath18)" fill="none" width="19" height="39" stroke="rgb(194,239,255)" />
      <text xml:space="preserve" x="816" y="171" clip-path="url(#clipPath19)" stroke="none">in01</text>
      <rect x="795" y="270" clip-path="url(#clipPath20)" fill="rgb(194,239,255)" width="20" height="40" stroke="none" />
      <rect x="795" y="270" clip-path="url(#clipPath20)" fill="none" width="19" height="39" stroke="rgb(194,239,255)" />
      <text xml:space="preserve" x="816" y="291" clip-path="url(#clipPath21)" stroke="none">in02</text>
      <rect x="795" y="390" clip-path="url(#clipPath22)" fill="rgb(194,239,255)" width="20" height="40" stroke="none" />
      <rect x="795" y="390" clip-path="url(#clipPath22)" fill="none" width="19" height="39" stroke="rgb(194,239,255)" />
      <text xml:space="preserve" x="816" y="411" clip-path="url(#clipPath23)" stroke="none">in03</text>
      <rect x="795" y="510" clip-path="url(#clipPath24)" fill="rgb(194,239,255)" width="20" height="40" stroke="none" />
      <rect x="795" y="510" clip-path="url(#clipPath24)" fill="none" width="19" height="39" stroke="rgb(194,239,255)" />
      <text xml:space="preserve" x="816" y="531" clip-path="url(#clipPath25)" stroke="none">in04</text>
      <rect x="795" y="630" clip-path="url(#clipPath26)" fill="rgb(194,239,255)" width="20" height="40" stroke="none" />
      <rect x="795" y="630" clip-path="url(#clipPath26)" fill="none" width="19" height="39" stroke="rgb(194,239,255)" />
      <text xml:space="preserve" x="816" y="651" clip-path="url(#clipPath27)" stroke="none">in05</text>
      <line clip-path="url(#clipPath28)" fill="none" x1="795" x2="102" y1="90" y2="90" stroke="rgb(136,136,136)" stroke-width="2.1" />
      <text x="296" y="89" clip-path="url(#clipPath29)" stroke="none" stroke-width="2.1" xml:space="preserve">oeLogin("icrashadmin","7WXC1359")</text>
      <line clip-path="url(#clipPath30)" fill="none" x1="109" x2="102" y1="87" y2="90" stroke="rgb(136,136,136)" stroke-width="2.1" />
      <line clip-path="url(#clipPath30)" fill="none" x1="102" x2="109" y1="90" y2="93" stroke="rgb(136,136,136)" stroke-width="2.1" />
      <line clip-path="url(#clipPath28)" fill="none" x1="795" x2="102" y1="210" y2="210" stroke="rgb(136,136,136)" stroke-width="2.1" />
      <text x="24" y="209" clip-path="url(#clipPath31)" stroke="none" stroke-width="2.1" xml:space="preserve">oeAddPointOfInterest("Police station","55.65448:1.548648","Police station: open from 8:30 until 17:30")</text>
      <line clip-path="url(#clipPath32)" fill="none" x1="109" x2="102" y1="207" y2="210" stroke="rgb(136,136,136)" stroke-width="2.1" />
      <line clip-path="url(#clipPath32)" fill="none" x1="102" x2="109" y1="210" y2="213" stroke="rgb(136,136,136)" stroke-width="2.1" />
      <line clip-path="url(#clipPath28)" fill="none" x1="795" x2="102" y1="330" y2="330" stroke="rgb(136,136,136)" stroke-width="2.1" />
      <text x="159" y="329" clip-path="url(#clipPath33)" stroke="none" stroke-width="2.1" xml:space="preserve">oeEditPointOfInterest("1","Police station : open from 9:00 until 17:00")</text>
      <line clip-path="url(#clipPath34)" fill="none" x1="109" x2="102" y1="327" y2="330" stroke="rgb(136,136,136)" stroke-width="2.1" />
      <line clip-path="url(#clipPath34)" fill="none" x1="102" x2="109" y1="330" y2="333" stroke="rgb(136,136,136)" stroke-width="2.1" />
      <line clip-path="url(#clipPath28)" fill="none" x1="795" x2="102" y1="450" y2="450" stroke="rgb(136,136,136)" stroke-width="2.1" />
      <text x="330" y="449" clip-path="url(#clipPath35)" stroke="none" stroke-width="2.1" xml:space="preserve">oeDeletePointOfInterest("1")</text>
      <line clip-path="url(#clipPath36)" fill="none" x1="109" x2="102" y1="447" y2="450" stroke="rgb(136,136,136)" stroke-width="2.1" />
      <line clip-path="url(#clipPath36)" fill="none" x1="102" x2="109" y1="450" y2="453" stroke="rgb(136,136,136)" stroke-width="2.1" />
      <line clip-path="url(#clipPath28)" fill="none" x1="795" x2="102" y1="570" y2="570" stroke="rgb(136,136,136)" stroke-width="2.1" />
      <text x="403" y="569" clip-path="url(#clipPath37)" stroke="none" stroke-width="2.1" xml:space="preserve">oeLogout()</text>
      <line clip-path="url(#clipPath38)" fill="none" x1="109" x2="102" y1="567" y2="570" stroke="rgb(136,136,136)" stroke-width="2.1" />
      <line clip-path="url(#clipPath38)" fill="none" x1="102" x2="109" y1="570" y2="573" stroke="rgb(136,136,136)" stroke-width="2.1" />
    </g>
    <g stroke-linecap="butt" font-size="19" fill="rgb(136,136,136)" font-family="'Segoe UI'" stroke-dasharray="5,5" stroke="rgb(136,136,136)" stroke-width="2.1">
      <line clip-path="url(#clipPath28)" fill="none" x1="795" x2="102" y1="150" y2="150" />
      <text x="279" y="149" clip-path="url(#clipPath39)" fill="black" stroke="none" xml:space="preserve">ieMessage(You are logged ! Welcome ...)</text>
      <line clip-path="url(#clipPath40)" fill="none" x1="788" x2="795" y1="153" y2="150" stroke-dasharray="none" />
      <line clip-path="url(#clipPath40)" fill="none" x1="795" x2="788" y1="150" y2="147" stroke-dasharray="none" />
      <line clip-path="url(#clipPath28)" fill="none" x1="795" x2="102" y1="270" y2="270" />
      <text x="345" y="269" clip-path="url(#clipPath41)" fill="black" stroke="none" xml:space="preserve">iePointOfInterestAdded()</text>
      <line clip-path="url(#clipPath42)" fill="none" x1="788" x2="795" y1="273" y2="270" stroke-dasharray="none" />
      <line clip-path="url(#clipPath42)" fill="none" x1="795" x2="788" y1="270" y2="267" stroke-dasharray="none" />
      <line clip-path="url(#clipPath28)" fill="none" x1="795" x2="102" y1="390" y2="390" />
      <text x="346" y="389" clip-path="url(#clipPath43)" fill="black" stroke="none" xml:space="preserve">iePointOfInterestEdited()</text>
      <line clip-path="url(#clipPath44)" fill="none" x1="788" x2="795" y1="393" y2="390" stroke-dasharray="none" />
      <line clip-path="url(#clipPath44)" fill="none" x1="795" x2="788" y1="390" y2="387" stroke-dasharray="none" />
      <line clip-path="url(#clipPath28)" fill="none" x1="795" x2="102" y1="510" y2="510" />
      <text x="340" y="509" clip-path="url(#clipPath45)" fill="black" stroke="none" xml:space="preserve">iePointOfInterestDeleted()</text>
      <line clip-path="url(#clipPath46)" fill="none" x1="788" x2="795" y1="513" y2="510" stroke-dasharray="none" />
      <line clip-path="url(#clipPath46)" fill="none" x1="795" x2="788" y1="510" y2="507" stroke-dasharray="none" />
      <line clip-path="url(#clipPath28)" fill="none" x1="795" x2="102" y1="630" y2="630" />
      <text x="259" y="635" clip-path="url(#clipPath47)" fill="black" stroke="none" xml:space="preserve">ieMessage(You are logged  out ! Good Bye ...)</text>
      <line clip-path="url(#clipPath48)" fill="none" x1="788" x2="795" y1="633" y2="630" stroke-dasharray="none" />
      <line clip-path="url(#clipPath48)" fill="none" x1="795" x2="788" y1="630" y2="627" stroke-dasharray="none" />
    </g>
  </g>
</svg>

