<?xml version="1.0" encoding="UTF-8"?>
<svg xmlns="http://www.w3.org/2000/svg" xmlns:xlink="http://www.w3.org/1999/xlink" stroke-dasharray="none" shape-rendering="auto" font-family="'Dialog'" width="889" text-rendering="auto" fill-opacity="1" contentScriptType="text/ecmascript" color-interpolation="auto" color-rendering="auto" preserveAspectRatio="xMidYMid meet" font-size="12" viewBox="0 0 889 1032" fill="black" stroke="black" image-rendering="auto" stroke-miterlimit="10" zoomAndPan="magnify" version="1.0" stroke-linecap="square" stroke-linejoin="miter" contentStyleType="text/css" font-style="normal" height="1032" stroke-width="1" stroke-dashoffset="0" font-weight="normal" stroke-opacity="1">
  <!--Generated by the Batik Graphics2D SVG Generator-->
  <defs id="genericDefs" />
  <g>
    <defs id="defs1">
      <clipPath clipPathUnits="userSpaceOnUse" id="clipPath1">
        <path d="M270 9 L342 9 L342 41 L270 41 L270 9 Z" />
      </clipPath>
      <clipPath clipPathUnits="userSpaceOnUse" id="clipPath2">
        <path d="M270 9 L346 9 L346 41 L270 41 L270 9 Z" />
      </clipPath>
      <clipPath clipPathUnits="userSpaceOnUse" id="clipPath3">
        <path d="M300 39 L312 39 L312 1023 L300 1023 L300 39 Z" />
      </clipPath>
      <clipPath clipPathUnits="userSpaceOnUse" id="clipPath4">
        <path d="M512 9 L672 9 L672 64 L512 64 L512 9 Z" />
      </clipPath>
      <clipPath clipPathUnits="userSpaceOnUse" id="clipPath5">
        <path d="M512 9 L676 9 L676 64 L512 64 L512 9 Z" />
      </clipPath>
      <clipPath clipPathUnits="userSpaceOnUse" id="clipPath6">
        <path d="M586 62 L598 62 L598 1023 L586 1023 L586 62 Z" />
      </clipPath>
      <clipPath clipPathUnits="userSpaceOnUse" id="clipPath7">
        <path d="M581 91 L603 91 L603 133 L581 133 L581 91 Z" />
      </clipPath>
      <clipPath clipPathUnits="userSpaceOnUse" id="clipPath8">
        <path d="M602 91 L656 91 L656 118 L602 118 L602 91 Z" />
      </clipPath>
      <clipPath clipPathUnits="userSpaceOnUse" id="clipPath9">
        <path d="M581 211 L603 211 L603 253 L581 253 L581 211 Z" />
      </clipPath>
      <clipPath clipPathUnits="userSpaceOnUse" id="clipPath10">
        <path d="M602 211 L656 211 L656 238 L602 238 L602 211 Z" />
      </clipPath>
      <clipPath clipPathUnits="userSpaceOnUse" id="clipPath11">
        <path d="M581 331 L603 331 L603 373 L581 373 L581 331 Z" />
      </clipPath>
      <clipPath clipPathUnits="userSpaceOnUse" id="clipPath12">
        <path d="M602 331 L656 331 L656 358 L602 358 L602 331 Z" />
      </clipPath>
      <clipPath clipPathUnits="userSpaceOnUse" id="clipPath13">
        <path d="M581 511 L603 511 L603 553 L581 553 L581 511 Z" />
      </clipPath>
      <clipPath clipPathUnits="userSpaceOnUse" id="clipPath14">
        <path d="M602 511 L656 511 L656 538 L602 538 L602 511 Z" />
      </clipPath>
      <clipPath clipPathUnits="userSpaceOnUse" id="clipPath15">
        <path d="M581 631 L603 631 L603 673 L581 673 L581 631 Z" />
      </clipPath>
      <clipPath clipPathUnits="userSpaceOnUse" id="clipPath16">
        <path d="M602 631 L656 631 L656 658 L602 658 L602 631 Z" />
      </clipPath>
      <clipPath clipPathUnits="userSpaceOnUse" id="clipPath17">
        <path d="M581 751 L603 751 L603 793 L581 793 L581 751 Z" />
      </clipPath>
      <clipPath clipPathUnits="userSpaceOnUse" id="clipPath18">
        <path d="M602 751 L656 751 L656 778 L602 778 L602 751 Z" />
      </clipPath>
      <clipPath clipPathUnits="userSpaceOnUse" id="clipPath19">
        <path d="M581 871 L603 871 L603 913 L581 913 L581 871 Z" />
      </clipPath>
      <clipPath clipPathUnits="userSpaceOnUse" id="clipPath20">
        <path d="M602 871 L656 871 L656 898 L602 898 L602 871 Z" />
      </clipPath>
      <clipPath clipPathUnits="userSpaceOnUse" id="clipPath21">
        <path d="M581 151 L603 151 L603 193 L581 193 L581 151 Z" />
      </clipPath>
      <clipPath clipPathUnits="userSpaceOnUse" id="clipPath22">
        <path d="M602 151 L644 151 L644 178 L602 178 L602 151 Z" />
      </clipPath>
      <clipPath clipPathUnits="userSpaceOnUse" id="clipPath23">
        <path d="M581 271 L603 271 L603 313 L581 313 L581 271 Z" />
      </clipPath>
      <clipPath clipPathUnits="userSpaceOnUse" id="clipPath24">
        <path d="M602 271 L644 271 L644 298 L602 298 L602 271 Z" />
      </clipPath>
      <clipPath clipPathUnits="userSpaceOnUse" id="clipPath25">
        <path d="M581 392 L603 392 L603 434 L581 434 L581 392 Z" />
      </clipPath>
      <clipPath clipPathUnits="userSpaceOnUse" id="clipPath26">
        <path d="M602 392 L644 392 L644 419 L602 419 L602 392 Z" />
      </clipPath>
      <clipPath clipPathUnits="userSpaceOnUse" id="clipPath27">
        <path d="M581 451 L603 451 L603 493 L581 493 L581 451 Z" />
      </clipPath>
      <clipPath clipPathUnits="userSpaceOnUse" id="clipPath28">
        <path d="M602 451 L644 451 L644 478 L602 478 L602 451 Z" />
      </clipPath>
      <clipPath clipPathUnits="userSpaceOnUse" id="clipPath29">
        <path d="M581 571 L603 571 L603 613 L581 613 L581 571 Z" />
      </clipPath>
      <clipPath clipPathUnits="userSpaceOnUse" id="clipPath30">
        <path d="M602 571 L644 571 L644 598 L602 598 L602 571 Z" />
      </clipPath>
      <clipPath clipPathUnits="userSpaceOnUse" id="clipPath31">
        <path d="M581 691 L603 691 L603 733 L581 733 L581 691 Z" />
      </clipPath>
      <clipPath clipPathUnits="userSpaceOnUse" id="clipPath32">
        <path d="M602 691 L644 691 L644 718 L602 718 L602 691 Z" />
      </clipPath>
      <clipPath clipPathUnits="userSpaceOnUse" id="clipPath33">
        <path d="M581 811 L603 811 L603 853 L581 853 L581 811 Z" />
      </clipPath>
      <clipPath clipPathUnits="userSpaceOnUse" id="clipPath34">
        <path d="M602 811 L644 811 L644 838 L602 838 L602 811 Z" />
      </clipPath>
      <clipPath clipPathUnits="userSpaceOnUse" id="clipPath35">
        <path d="M581 931 L603 931 L603 973 L581 973 L581 931 Z" />
      </clipPath>
      <clipPath clipPathUnits="userSpaceOnUse" id="clipPath36">
        <path d="M602 931 L644 931 L644 958 L602 958 L602 931 Z" />
      </clipPath>
      <clipPath clipPathUnits="userSpaceOnUse" id="clipPath37">
        <path d="M-1 -1 L890 -1 L890 1033 L-1 1033 L-1 -1 Z" />
      </clipPath>
      <clipPath clipPathUnits="userSpaceOnUse" id="clipPath38">
        <path d="M342 69 L550 69 L550 96 L342 96 L342 69 Z" />
      </clipPath>
      <clipPath clipPathUnits="userSpaceOnUse" id="clipPath39">
        <path d="M304 87 L316 87 L316 98 L304 98 L304 87 Z" />
      </clipPath>
      <clipPath clipPathUnits="userSpaceOnUse" id="clipPath40">
        <path d="M342 189 L550 189 L550 216 L342 216 L342 189 Z" />
      </clipPath>
      <clipPath clipPathUnits="userSpaceOnUse" id="clipPath41">
        <path d="M304 207 L316 207 L316 218 L304 218 L304 207 Z" />
      </clipPath>
      <clipPath clipPathUnits="userSpaceOnUse" id="clipPath42">
        <path d="M342 309 L550 309 L550 336 L342 336 L342 309 Z" />
      </clipPath>
      <clipPath clipPathUnits="userSpaceOnUse" id="clipPath43">
        <path d="M304 327 L316 327 L316 338 L304 338 L304 327 Z" />
      </clipPath>
      <clipPath clipPathUnits="userSpaceOnUse" id="clipPath44">
        <path d="M311 489 L582 489 L582 516 L311 516 L311 489 Z" />
      </clipPath>
      <clipPath clipPathUnits="userSpaceOnUse" id="clipPath45">
        <path d="M304 507 L316 507 L316 518 L304 518 L304 507 Z" />
      </clipPath>
      <clipPath clipPathUnits="userSpaceOnUse" id="clipPath46">
        <path d="M295 609 L597 609 L597 636 L295 636 L295 609 Z" />
      </clipPath>
      <clipPath clipPathUnits="userSpaceOnUse" id="clipPath47">
        <path d="M304 627 L316 627 L316 638 L304 638 L304 627 Z" />
      </clipPath>
      <clipPath clipPathUnits="userSpaceOnUse" id="clipPath48">
        <path d="M308 729 L584 729 L584 756 L308 756 L308 729 Z" />
      </clipPath>
      <clipPath clipPathUnits="userSpaceOnUse" id="clipPath49">
        <path d="M304 747 L316 747 L316 758 L304 758 L304 747 Z" />
      </clipPath>
      <clipPath clipPathUnits="userSpaceOnUse" id="clipPath50">
        <path d="M397 849 L495 849 L495 876 L397 876 L397 849 Z" />
      </clipPath>
      <clipPath clipPathUnits="userSpaceOnUse" id="clipPath51">
        <path d="M304 867 L316 867 L316 878 L304 878 L304 867 Z" />
      </clipPath>
      <clipPath clipPathUnits="userSpaceOnUse" id="clipPath52">
        <path d="M188 129 L704 129 L704 156 L188 156 L188 129 Z" />
      </clipPath>
      <clipPath clipPathUnits="userSpaceOnUse" id="clipPath53">
        <path d="M573 147 L585 147 L585 158 L573 158 L573 147 Z" />
      </clipPath>
      <clipPath clipPathUnits="userSpaceOnUse" id="clipPath54">
        <path d="M188 249 L704 249 L704 276 L188 276 L188 249 Z" />
      </clipPath>
      <clipPath clipPathUnits="userSpaceOnUse" id="clipPath55">
        <path d="M573 267 L585 267 L585 278 L573 278 L573 267 Z" />
      </clipPath>
      <clipPath clipPathUnits="userSpaceOnUse" id="clipPath56">
        <path d="M186 370 L706 370 L706 397 L186 397 L186 370 Z" />
      </clipPath>
      <clipPath clipPathUnits="userSpaceOnUse" id="clipPath57">
        <path d="M573 388 L585 388 L585 399 L573 399 L573 388 Z" />
      </clipPath>
      <clipPath clipPathUnits="userSpaceOnUse" id="clipPath58">
        <path d="M23 429 L870 429 L870 456 L23 456 L23 429 Z" />
      </clipPath>
      <clipPath clipPathUnits="userSpaceOnUse" id="clipPath59">
        <path d="M573 447 L585 447 L585 458 L573 458 L573 447 Z" />
      </clipPath>
      <clipPath clipPathUnits="userSpaceOnUse" id="clipPath60">
        <path d="M234 549 L658 549 L658 576 L234 576 L234 549 Z" />
      </clipPath>
      <clipPath clipPathUnits="userSpaceOnUse" id="clipPath61">
        <path d="M573 567 L585 567 L585 578 L573 578 L573 567 Z" />
      </clipPath>
      <clipPath clipPathUnits="userSpaceOnUse" id="clipPath62">
        <path d="M179 669 L714 669 L714 696 L179 696 L179 669 Z" />
      </clipPath>
      <clipPath clipPathUnits="userSpaceOnUse" id="clipPath63">
        <path d="M573 687 L585 687 L585 698 L573 698 L573 687 Z" />
      </clipPath>
      <clipPath clipPathUnits="userSpaceOnUse" id="clipPath64">
        <path d="M273 789 L620 789 L620 816 L273 816 L273 789 Z" />
      </clipPath>
      <clipPath clipPathUnits="userSpaceOnUse" id="clipPath65">
        <path d="M573 807 L585 807 L585 818 L573 818 L573 807 Z" />
      </clipPath>
      <clipPath clipPathUnits="userSpaceOnUse" id="clipPath66">
        <path d="M255 909 L637 909 L637 936 L255 936 L255 909 Z" />
      </clipPath>
      <clipPath clipPathUnits="userSpaceOnUse" id="clipPath67">
        <path d="M573 927 L585 927 L585 938 L573 938 L573 927 Z" />
      </clipPath>
    </defs>
    <g fill="rgb(238,201,142)" font-family="'Segoe UI'" stroke-linejoin="round" stroke="rgb(238,201,142)" stroke-width="0" stroke-miterlimit="0">
      <rect x="271" y="10" clip-path="url(#clipPath1)" width="70" height="30" stroke="none" />
    </g>
    <g stroke-width="0.1" font-family="'Segoe UI'" stroke-linecap="butt">
      <rect x="271" y="10" clip-path="url(#clipPath1)" fill="none" width="69" height="29" />
      <text x="276" font-size="19" y="33" clip-path="url(#clipPath2)" stroke="none" xml:space="preserve">System</text>
      <line clip-path="url(#clipPath3)" fill="none" x1="305" x2="305" y1="40" y2="1022" stroke-dasharray="10,10" stroke-width="1.1" />
    </g>
    <g stroke-linecap="butt" fill="rgb(255,245,181)" font-family="'Segoe UI'" stroke-dasharray="10,10" stroke="rgb(255,245,181)" stroke-width="1.1">
      <rect x="513" y="10" clip-path="url(#clipPath4)" width="158" height="53" stroke="none" />
    </g>
    <g stroke-width="0.1" font-family="'Segoe UI'" stroke-linecap="butt">
      <rect x="513" y="10" clip-path="url(#clipPath4)" fill="none" width="157" height="52" />
      <text x="558" font-size="19" y="32" clip-path="url(#clipPath5)" stroke="none" xml:space="preserve">Theuser</text>
      <text x="516" font-size="19" y="57" clip-path="url(#clipPath5)" stroke="none" xml:space="preserve">: actAuthenticated</text>
      <line clip-path="url(#clipPath6)" fill="none" x1="591" x2="591" y1="63" y2="1022" stroke-dasharray="10,10" stroke-width="1.1" />
    </g>
    <g stroke-linecap="butt" fill="rgb(39,76,114)" font-family="'Segoe UI'" stroke-dasharray="10,10" stroke="rgb(39,76,114)" stroke-width="1.1">
      <rect x="582" y="92" clip-path="url(#clipPath7)" width="20" height="40" stroke="none" />
      <rect x="582" y="92" clip-path="url(#clipPath7)" fill="none" width="19" stroke-dasharray="none" height="39" stroke-width="0.1" />
    </g>
    <g stroke-width="0.1" font-size="19" font-family="'Segoe UI'" stroke-linecap="butt">
      <text xml:space="preserve" x="603" y="113" clip-path="url(#clipPath8)" stroke="none">out01</text>
      <rect x="582" y="212" clip-path="url(#clipPath9)" fill="rgb(39,76,114)" width="20" height="40" stroke="none" />
      <rect x="582" y="212" clip-path="url(#clipPath9)" fill="none" width="19" height="39" stroke="rgb(39,76,114)" />
      <text xml:space="preserve" x="603" y="233" clip-path="url(#clipPath10)" stroke="none">out02</text>
      <rect x="582" y="332" clip-path="url(#clipPath11)" fill="rgb(39,76,114)" width="20" height="40" stroke="none" />
      <rect x="582" y="332" clip-path="url(#clipPath11)" fill="none" width="19" height="39" stroke="rgb(39,76,114)" />
      <text xml:space="preserve" x="603" y="353" clip-path="url(#clipPath12)" stroke="none">out03</text>
      <rect x="582" y="512" clip-path="url(#clipPath13)" fill="rgb(39,76,114)" width="20" height="40" stroke="none" />
      <rect x="582" y="512" clip-path="url(#clipPath13)" fill="none" width="19" height="39" stroke="rgb(39,76,114)" />
      <text xml:space="preserve" x="603" y="533" clip-path="url(#clipPath14)" stroke="none">out04</text>
      <rect x="582" y="632" clip-path="url(#clipPath15)" fill="rgb(39,76,114)" width="20" height="40" stroke="none" />
      <rect x="582" y="632" clip-path="url(#clipPath15)" fill="none" width="19" height="39" stroke="rgb(39,76,114)" />
      <text xml:space="preserve" x="603" y="653" clip-path="url(#clipPath16)" stroke="none">out05</text>
      <rect x="582" y="752" clip-path="url(#clipPath17)" fill="rgb(39,76,114)" width="20" height="40" stroke="none" />
      <rect x="582" y="752" clip-path="url(#clipPath17)" fill="none" width="19" height="39" stroke="rgb(39,76,114)" />
      <text xml:space="preserve" x="603" y="773" clip-path="url(#clipPath18)" stroke="none">out06</text>
      <rect x="582" y="872" clip-path="url(#clipPath19)" fill="rgb(39,76,114)" width="20" height="40" stroke="none" />
      <rect x="582" y="872" clip-path="url(#clipPath19)" fill="none" width="19" height="39" stroke="rgb(39,76,114)" />
      <text xml:space="preserve" x="603" y="893" clip-path="url(#clipPath20)" stroke="none">out07</text>
      <rect x="582" y="152" clip-path="url(#clipPath21)" fill="rgb(194,239,255)" width="20" height="40" stroke="none" />
      <rect x="582" y="152" clip-path="url(#clipPath21)" fill="none" width="19" height="39" stroke="rgb(194,239,255)" />
      <text xml:space="preserve" x="603" y="173" clip-path="url(#clipPath22)" stroke="none">in01</text>
      <rect x="582" y="272" clip-path="url(#clipPath23)" fill="rgb(194,239,255)" width="20" height="40" stroke="none" />
      <rect x="582" y="272" clip-path="url(#clipPath23)" fill="none" width="19" height="39" stroke="rgb(194,239,255)" />
      <text xml:space="preserve" x="603" y="293" clip-path="url(#clipPath24)" stroke="none">in02</text>
      <rect x="582" y="393" clip-path="url(#clipPath25)" fill="rgb(194,239,255)" width="20" height="40" stroke="none" />
      <rect x="582" y="393" clip-path="url(#clipPath25)" fill="none" width="19" height="39" stroke="rgb(194,239,255)" />
      <text xml:space="preserve" x="603" y="414" clip-path="url(#clipPath26)" stroke="none">in03</text>
      <rect x="582" y="452" clip-path="url(#clipPath27)" fill="rgb(194,239,255)" width="20" height="40" stroke="none" />
      <rect x="582" y="452" clip-path="url(#clipPath27)" fill="none" width="19" height="39" stroke="rgb(194,239,255)" />
      <text xml:space="preserve" x="603" y="473" clip-path="url(#clipPath28)" stroke="none">in04</text>
      <rect x="582" y="572" clip-path="url(#clipPath29)" fill="rgb(194,239,255)" width="20" height="40" stroke="none" />
      <rect x="582" y="572" clip-path="url(#clipPath29)" fill="none" width="19" height="39" stroke="rgb(194,239,255)" />
      <text xml:space="preserve" x="603" y="593" clip-path="url(#clipPath30)" stroke="none">in05</text>
      <rect x="582" y="692" clip-path="url(#clipPath31)" fill="rgb(194,239,255)" width="20" height="40" stroke="none" />
      <rect x="582" y="692" clip-path="url(#clipPath31)" fill="none" width="19" height="39" stroke="rgb(194,239,255)" />
      <text xml:space="preserve" x="603" y="713" clip-path="url(#clipPath32)" stroke="none">in06</text>
      <rect x="582" y="812" clip-path="url(#clipPath33)" fill="rgb(194,239,255)" width="20" height="40" stroke="none" />
      <rect x="582" y="812" clip-path="url(#clipPath33)" fill="none" width="19" height="39" stroke="rgb(194,239,255)" />
      <text xml:space="preserve" x="603" y="833" clip-path="url(#clipPath34)" stroke="none">in07</text>
      <rect x="582" y="932" clip-path="url(#clipPath35)" fill="rgb(194,239,255)" width="20" height="40" stroke="none" />
      <rect x="582" y="932" clip-path="url(#clipPath35)" fill="none" width="19" height="39" stroke="rgb(194,239,255)" />
      <text xml:space="preserve" x="603" y="953" clip-path="url(#clipPath36)" stroke="none">in08</text>
      <line clip-path="url(#clipPath37)" fill="none" x1="582" x2="306" y1="92" y2="92" stroke="rgb(136,136,136)" stroke-width="2.1" />
      <text x="343" y="91" clip-path="url(#clipPath38)" stroke="none" stroke-width="2.1" xml:space="preserve">oeLogin("failed","login")</text>
      <line clip-path="url(#clipPath39)" fill="none" x1="313" x2="306" y1="89" y2="92" stroke="rgb(136,136,136)" stroke-width="2.1" />
      <line clip-path="url(#clipPath39)" fill="none" x1="306" x2="313" y1="92" y2="95" stroke="rgb(136,136,136)" stroke-width="2.1" />
      <line clip-path="url(#clipPath37)" fill="none" x1="582" x2="306" y1="212" y2="212" stroke="rgb(136,136,136)" stroke-width="2.1" />
      <text x="343" y="211" clip-path="url(#clipPath40)" stroke="none" stroke-width="2.1" xml:space="preserve">oeLogin("failed","login")</text>
      <line clip-path="url(#clipPath41)" fill="none" x1="313" x2="306" y1="209" y2="212" stroke="rgb(136,136,136)" stroke-width="2.1" />
      <line clip-path="url(#clipPath41)" fill="none" x1="306" x2="313" y1="212" y2="215" stroke="rgb(136,136,136)" stroke-width="2.1" />
      <line clip-path="url(#clipPath37)" fill="none" x1="582" x2="306" y1="332" y2="332" stroke="rgb(136,136,136)" stroke-width="2.1" />
      <text x="343" y="331" clip-path="url(#clipPath42)" stroke="none" stroke-width="2.1" xml:space="preserve">oeLogin("failed","login")</text>
      <line clip-path="url(#clipPath43)" fill="none" x1="313" x2="306" y1="329" y2="332" stroke="rgb(136,136,136)" stroke-width="2.1" />
      <line clip-path="url(#clipPath43)" fill="none" x1="306" x2="313" y1="332" y2="335" stroke="rgb(136,136,136)" stroke-width="2.1" />
      <line clip-path="url(#clipPath37)" fill="none" x1="582" x2="306" y1="512" y2="512" stroke="rgb(136,136,136)" stroke-width="2.1" />
      <text x="312" y="511" clip-path="url(#clipPath44)" stroke="none" stroke-width="2.1" xml:space="preserve">oeFillCaptcha("wrong captcha")</text>
      <line clip-path="url(#clipPath45)" fill="none" x1="313" x2="306" y1="509" y2="512" stroke="rgb(136,136,136)" stroke-width="2.1" />
      <line clip-path="url(#clipPath45)" fill="none" x1="306" x2="313" y1="512" y2="515" stroke="rgb(136,136,136)" stroke-width="2.1" />
      <line clip-path="url(#clipPath37)" fill="none" x1="582" x2="306" y1="632" y2="632" stroke="rgb(136,136,136)" stroke-width="2.1" />
      <text x="296" y="631" clip-path="url(#clipPath46)" stroke="none" stroke-width="2.1" xml:space="preserve">oeFillCaptcha("successful captcha")</text>
      <line clip-path="url(#clipPath47)" fill="none" x1="313" x2="306" y1="629" y2="632" stroke="rgb(136,136,136)" stroke-width="2.1" />
      <line clip-path="url(#clipPath47)" fill="none" x1="306" x2="313" y1="632" y2="635" stroke="rgb(136,136,136)" stroke-width="2.1" />
      <line clip-path="url(#clipPath37)" fill="none" x1="582" x2="306" y1="752" y2="752" stroke="rgb(136,136,136)" stroke-width="2.1" />
      <text x="309" y="751" clip-path="url(#clipPath48)" stroke="none" stroke-width="2.1" xml:space="preserve">oeLogin("Theuser","7WXC1359")</text>
      <line clip-path="url(#clipPath49)" fill="none" x1="313" x2="306" y1="749" y2="752" stroke="rgb(136,136,136)" stroke-width="2.1" />
      <line clip-path="url(#clipPath49)" fill="none" x1="306" x2="313" y1="752" y2="755" stroke="rgb(136,136,136)" stroke-width="2.1" />
      <line clip-path="url(#clipPath37)" fill="none" x1="582" x2="306" y1="872" y2="872" stroke="rgb(136,136,136)" stroke-width="2.1" />
      <text x="398" y="871" clip-path="url(#clipPath50)" stroke="none" stroke-width="2.1" xml:space="preserve">oeLogout()</text>
      <line clip-path="url(#clipPath51)" fill="none" x1="313" x2="306" y1="869" y2="872" stroke="rgb(136,136,136)" stroke-width="2.1" />
      <line clip-path="url(#clipPath51)" fill="none" x1="306" x2="313" y1="872" y2="875" stroke="rgb(136,136,136)" stroke-width="2.1" />
    </g>
    <g stroke-linecap="butt" font-size="19" fill="rgb(136,136,136)" font-family="'Segoe UI'" stroke-dasharray="5,5" stroke="rgb(136,136,136)" stroke-width="2.1">
      <line clip-path="url(#clipPath37)" fill="none" x1="582" x2="306" y1="152" y2="152" />
      <text x="189" y="151" clip-path="url(#clipPath52)" fill="black" stroke="none" xml:space="preserve">ieMessage(Your password is not correct. Wrong attempts : 1)</text>
      <line clip-path="url(#clipPath53)" fill="none" x1="575" x2="582" y1="155" y2="152" stroke-dasharray="none" />
      <line clip-path="url(#clipPath53)" fill="none" x1="582" x2="575" y1="152" y2="149" stroke-dasharray="none" />
      <line clip-path="url(#clipPath37)" fill="none" x1="582" x2="306" y1="272" y2="272" />
      <text x="189" y="271" clip-path="url(#clipPath54)" fill="black" stroke="none" xml:space="preserve">ieMessage(Your password is not correct. Wrong attempts : 2)</text>
      <line clip-path="url(#clipPath55)" fill="none" x1="575" x2="582" y1="275" y2="272" stroke-dasharray="none" />
      <line clip-path="url(#clipPath55)" fill="none" x1="582" x2="575" y1="272" y2="269" stroke-dasharray="none" />
      <line clip-path="url(#clipPath37)" fill="none" x1="582" x2="306" y1="393" y2="393" />
      <text x="187" y="392" clip-path="url(#clipPath56)" fill="black" stroke="none" xml:space="preserve">ieMessage(Your password is not correct. Wrong attempts : 3.)</text>
      <line clip-path="url(#clipPath57)" fill="none" x1="575" x2="582" y1="396" y2="393" stroke-dasharray="none" />
      <line clip-path="url(#clipPath57)" fill="none" x1="582" x2="575" y1="393" y2="390" stroke-dasharray="none" />
      <line clip-path="url(#clipPath37)" fill="none" x1="582" x2="306" y1="452" y2="452" />
      <text x="24" y="451" clip-path="url(#clipPath58)" fill="black" stroke="none" xml:space="preserve">ieMessage(You need to fill out a captcha to be able to login now. You can also do a password reset.)</text>
      <line clip-path="url(#clipPath59)" fill="none" x1="575" x2="582" y1="455" y2="452" stroke-dasharray="none" />
      <line clip-path="url(#clipPath59)" fill="none" x1="582" x2="575" y1="452" y2="449" stroke-dasharray="none" />
      <line clip-path="url(#clipPath37)" fill="none" x1="582" x2="306" y1="572" y2="572" />
      <text x="235" y="571" clip-path="url(#clipPath60)" fill="black" stroke="none" xml:space="preserve">ieMessage(Your captcha is not correct. Try again.)</text>
      <line clip-path="url(#clipPath61)" fill="none" x1="575" x2="582" y1="575" y2="572" stroke-dasharray="none" />
      <line clip-path="url(#clipPath61)" fill="none" x1="582" x2="575" y1="572" y2="569" stroke-dasharray="none" />
      <line clip-path="url(#clipPath37)" fill="none" x1="582" x2="306" y1="692" y2="692" />
      <text x="180" y="691" clip-path="url(#clipPath62)" fill="black" stroke="none" xml:space="preserve">ieMessage(Your captcha is correct. You may try to login again.)</text>
      <line clip-path="url(#clipPath63)" fill="none" x1="575" x2="582" y1="695" y2="692" stroke-dasharray="none" />
      <line clip-path="url(#clipPath63)" fill="none" x1="582" x2="575" y1="692" y2="689" stroke-dasharray="none" />
      <line clip-path="url(#clipPath37)" fill="none" x1="582" x2="306" y1="812" y2="812" />
      <text x="274" y="811" clip-path="url(#clipPath64)" fill="black" stroke="none" xml:space="preserve">ieMessage(You are logged ! Welcome ...)</text>
      <line clip-path="url(#clipPath65)" fill="none" x1="575" x2="582" y1="815" y2="812" stroke-dasharray="none" />
      <line clip-path="url(#clipPath65)" fill="none" x1="582" x2="575" y1="812" y2="809" stroke-dasharray="none" />
      <line clip-path="url(#clipPath37)" fill="none" x1="582" x2="306" y1="932" y2="932" />
      <text x="256" y="931" clip-path="url(#clipPath66)" fill="black" stroke="none" xml:space="preserve">ieMessage(You are logged out ! Good Bye ...)</text>
      <line clip-path="url(#clipPath67)" fill="none" x1="575" x2="582" y1="935" y2="932" stroke-dasharray="none" />
      <line clip-path="url(#clipPath67)" fill="none" x1="582" x2="575" y1="932" y2="929" stroke-dasharray="none" />
    </g>
  </g>
</svg>

