<?xml version="1.0" encoding="UTF-8"?>
<svg xmlns="http://www.w3.org/2000/svg" xmlns:xlink="http://www.w3.org/1999/xlink" stroke-dasharray="none" shape-rendering="auto" font-family="'Dialog'" width="884" text-rendering="auto" fill-opacity="1" contentScriptType="text/ecmascript" color-interpolation="auto" color-rendering="auto" preserveAspectRatio="xMidYMid meet" font-size="12" viewBox="0 0 884 550" fill="black" stroke="black" image-rendering="auto" stroke-miterlimit="10" zoomAndPan="magnify" version="1.0" stroke-linecap="square" stroke-linejoin="miter" contentStyleType="text/css" font-style="normal" height="550" stroke-width="1" stroke-dashoffset="0" font-weight="normal" stroke-opacity="1">
  <!--Generated by the Batik Graphics2D SVG Generator-->
  <defs id="genericDefs" />
  <g>
    <defs id="defs1">
      <clipPath clipPathUnits="userSpaceOnUse" id="clipPath1">
        <path d="M183 9 L255 9 L255 41 L183 41 L183 9 Z" />
      </clipPath>
      <clipPath clipPathUnits="userSpaceOnUse" id="clipPath2">
        <path d="M183 9 L259 9 L259 41 L183 41 L183 9 Z" />
      </clipPath>
      <clipPath clipPathUnits="userSpaceOnUse" id="clipPath3">
        <path d="M213 39 L225 39 L225 541 L213 541 L213 39 Z" />
      </clipPath>
      <clipPath clipPathUnits="userSpaceOnUse" id="clipPath4">
        <path d="M462 9 L625 9 L625 74 L462 74 L462 9 Z" />
      </clipPath>
      <clipPath clipPathUnits="userSpaceOnUse" id="clipPath5">
        <path d="M462 9 L629 9 L629 74 L462 74 L462 9 Z" />
      </clipPath>
      <clipPath clipPathUnits="userSpaceOnUse" id="clipPath6">
        <path d="M537 72 L549 72 L549 541 L537 541 L537 72 Z" />
      </clipPath>
      <clipPath clipPathUnits="userSpaceOnUse" id="clipPath7">
        <path d="M532 89 L554 89 L554 131 L532 131 L532 89 Z" />
      </clipPath>
      <clipPath clipPathUnits="userSpaceOnUse" id="clipPath8">
        <path d="M553 89 L607 89 L607 116 L553 116 L553 89 Z" />
      </clipPath>
      <clipPath clipPathUnits="userSpaceOnUse" id="clipPath9">
        <path d="M532 269 L554 269 L554 311 L532 311 L532 269 Z" />
      </clipPath>
      <clipPath clipPathUnits="userSpaceOnUse" id="clipPath10">
        <path d="M553 269 L607 269 L607 296 L553 296 L553 269 Z" />
      </clipPath>
      <clipPath clipPathUnits="userSpaceOnUse" id="clipPath11">
        <path d="M532 389 L554 389 L554 431 L532 431 L532 389 Z" />
      </clipPath>
      <clipPath clipPathUnits="userSpaceOnUse" id="clipPath12">
        <path d="M553 389 L607 389 L607 416 L553 416 L553 389 Z" />
      </clipPath>
      <clipPath clipPathUnits="userSpaceOnUse" id="clipPath13">
        <path d="M532 149 L554 149 L554 191 L532 191 L532 149 Z" />
      </clipPath>
      <clipPath clipPathUnits="userSpaceOnUse" id="clipPath14">
        <path d="M553 149 L595 149 L595 176 L553 176 L553 149 Z" />
      </clipPath>
      <clipPath clipPathUnits="userSpaceOnUse" id="clipPath15">
        <path d="M532 329 L554 329 L554 371 L532 371 L532 329 Z" />
      </clipPath>
      <clipPath clipPathUnits="userSpaceOnUse" id="clipPath16">
        <path d="M553 329 L595 329 L595 356 L553 356 L553 329 Z" />
      </clipPath>
      <clipPath clipPathUnits="userSpaceOnUse" id="clipPath17">
        <path d="M532 449 L554 449 L554 491 L532 491 L532 449 Z" />
      </clipPath>
      <clipPath clipPathUnits="userSpaceOnUse" id="clipPath18">
        <path d="M553 449 L595 449 L595 476 L553 476 L553 449 Z" />
      </clipPath>
      <clipPath clipPathUnits="userSpaceOnUse" id="clipPath19">
        <path d="M723 9 L875 9 L875 61 L723 61 L723 9 Z" />
      </clipPath>
      <clipPath clipPathUnits="userSpaceOnUse" id="clipPath20">
        <path d="M723 9 L880 9 L880 61 L723 61 L723 9 Z" />
      </clipPath>
      <clipPath clipPathUnits="userSpaceOnUse" id="clipPath21">
        <path d="M723 9 L879 9 L879 61 L723 61 L723 9 Z" />
      </clipPath>
      <clipPath clipPathUnits="userSpaceOnUse" id="clipPath22">
        <path d="M793 59 L805 59 L805 541 L793 541 L793 59 Z" />
      </clipPath>
      <clipPath clipPathUnits="userSpaceOnUse" id="clipPath23">
        <path d="M788 209 L810 209 L810 251 L788 251 L788 209 Z" />
      </clipPath>
      <clipPath clipPathUnits="userSpaceOnUse" id="clipPath24">
        <path d="M809 209 L851 209 L851 236 L809 236 L809 209 Z" />
      </clipPath>
      <clipPath clipPathUnits="userSpaceOnUse" id="clipPath25">
        <path d="M-1 -1 L885 -1 L885 551 L-1 551 L-1 -1 Z" />
      </clipPath>
      <clipPath clipPathUnits="userSpaceOnUse" id="clipPath26">
        <path d="M256 67 L501 67 L501 94 L256 94 L256 67 Z" />
      </clipPath>
      <clipPath clipPathUnits="userSpaceOnUse" id="clipPath27">
        <path d="M217 85 L229 85 L229 96 L217 96 L217 85 Z" />
      </clipPath>
      <clipPath clipPathUnits="userSpaceOnUse" id="clipPath28">
        <path d="M240 247 L516 247 L516 274 L240 274 L240 247 Z" />
      </clipPath>
      <clipPath clipPathUnits="userSpaceOnUse" id="clipPath29">
        <path d="M217 265 L229 265 L229 276 L217 276 L217 265 Z" />
      </clipPath>
      <clipPath clipPathUnits="userSpaceOnUse" id="clipPath30">
        <path d="M329 367 L427 367 L427 394 L329 394 L329 367 Z" />
      </clipPath>
      <clipPath clipPathUnits="userSpaceOnUse" id="clipPath31">
        <path d="M217 385 L229 385 L229 396 L217 396 L217 385 Z" />
      </clipPath>
      <clipPath clipPathUnits="userSpaceOnUse" id="clipPath32">
        <path d="M23 127 L734 127 L734 154 L23 154 L23 127 Z" />
      </clipPath>
      <clipPath clipPathUnits="userSpaceOnUse" id="clipPath33">
        <path d="M524 145 L536 145 L536 156 L524 156 L524 145 Z" />
      </clipPath>
      <clipPath clipPathUnits="userSpaceOnUse" id="clipPath34">
        <path d="M229 187 L783 187 L783 214 L229 214 L229 187 Z" />
      </clipPath>
      <clipPath clipPathUnits="userSpaceOnUse" id="clipPath35">
        <path d="M780 205 L792 205 L792 216 L780 216 L780 205 Z" />
      </clipPath>
      <clipPath clipPathUnits="userSpaceOnUse" id="clipPath36">
        <path d="M205 307 L552 307 L552 334 L205 334 L205 307 Z" />
      </clipPath>
      <clipPath clipPathUnits="userSpaceOnUse" id="clipPath37">
        <path d="M524 325 L536 325 L536 336 L524 336 L524 325 Z" />
      </clipPath>
      <clipPath clipPathUnits="userSpaceOnUse" id="clipPath38">
        <path d="M187 427 L569 427 L569 454 L187 454 L187 427 Z" />
      </clipPath>
      <clipPath clipPathUnits="userSpaceOnUse" id="clipPath39">
        <path d="M524 445 L536 445 L536 456 L524 456 L524 445 Z" />
      </clipPath>
    </defs>
    <g fill="rgb(238,201,142)" font-family="'Segoe UI'" stroke-linejoin="round" stroke="rgb(238,201,142)" stroke-width="0" stroke-miterlimit="0">
      <rect x="184" y="10" clip-path="url(#clipPath1)" width="70" height="30" stroke="none" />
    </g>
    <g stroke-width="0.1" font-family="'Segoe UI'" stroke-linecap="butt">
      <rect x="184" y="10" clip-path="url(#clipPath1)" fill="none" width="69" height="29" />
      <text x="189" font-size="19" y="33" clip-path="url(#clipPath2)" stroke="none" xml:space="preserve">System</text>
      <line clip-path="url(#clipPath3)" fill="none" x1="218" x2="218" y1="40" y2="540" stroke-dasharray="10,10" stroke-width="1.1" />
    </g>
    <g stroke-linecap="butt" fill="rgb(255,245,181)" font-family="'Segoe UI'" stroke-dasharray="10,10" stroke="rgb(255,245,181)" stroke-width="1.1">
      <rect x="463" y="10" clip-path="url(#clipPath4)" width="161" height="63" stroke="none" />
    </g>
    <g stroke-width="0.1" font-family="'Segoe UI'" stroke-linecap="butt">
      <rect x="463" y="10" clip-path="url(#clipPath4)" fill="none" width="160" height="62" />
      <text x="509" font-size="19" y="37" clip-path="url(#clipPath5)" stroke="none" xml:space="preserve">Theuser</text>
      <text x="467" font-size="19" y="62" clip-path="url(#clipPath5)" stroke="none" xml:space="preserve">: actAuthenticated</text>
      <line clip-path="url(#clipPath6)" fill="none" x1="542" x2="542" y1="73" y2="540" stroke-dasharray="10,10" stroke-width="1.1" />
    </g>
    <g stroke-linecap="butt" fill="rgb(39,76,114)" font-family="'Segoe UI'" stroke-dasharray="10,10" stroke="rgb(39,76,114)" stroke-width="1.1">
      <rect x="533" y="90" clip-path="url(#clipPath7)" width="20" height="40" stroke="none" />
      <rect x="533" y="90" clip-path="url(#clipPath7)" fill="none" width="19" stroke-dasharray="none" height="39" stroke-width="0.1" />
    </g>
    <g stroke-width="0.1" font-size="19" font-family="'Segoe UI'" stroke-linecap="butt">
      <text xml:space="preserve" x="554" y="111" clip-path="url(#clipPath8)" stroke="none">out01</text>
      <rect x="533" y="270" clip-path="url(#clipPath9)" fill="rgb(39,76,114)" width="20" height="40" stroke="none" />
      <rect x="533" y="270" clip-path="url(#clipPath9)" fill="none" width="19" height="39" stroke="rgb(39,76,114)" />
      <text xml:space="preserve" x="554" y="291" clip-path="url(#clipPath10)" stroke="none">out02</text>
      <rect x="533" y="390" clip-path="url(#clipPath11)" fill="rgb(39,76,114)" width="20" height="40" stroke="none" />
      <rect x="533" y="390" clip-path="url(#clipPath11)" fill="none" width="19" height="39" stroke="rgb(39,76,114)" />
      <text xml:space="preserve" x="554" y="411" clip-path="url(#clipPath12)" stroke="none">out03</text>
      <rect x="533" y="150" clip-path="url(#clipPath13)" fill="rgb(194,239,255)" width="20" height="40" stroke="none" />
      <rect x="533" y="150" clip-path="url(#clipPath13)" fill="none" width="19" height="39" stroke="rgb(194,239,255)" />
      <text xml:space="preserve" x="554" y="171" clip-path="url(#clipPath14)" stroke="none">in01</text>
      <rect x="533" y="330" clip-path="url(#clipPath15)" fill="rgb(194,239,255)" width="20" height="40" stroke="none" />
      <rect x="533" y="330" clip-path="url(#clipPath15)" fill="none" width="19" height="39" stroke="rgb(194,239,255)" />
      <text xml:space="preserve" x="554" y="351" clip-path="url(#clipPath16)" stroke="none">in03</text>
      <rect x="533" y="450" clip-path="url(#clipPath17)" fill="rgb(194,239,255)" width="20" height="40" stroke="none" />
      <rect x="533" y="450" clip-path="url(#clipPath17)" fill="none" width="19" height="39" stroke="rgb(194,239,255)" />
      <text xml:space="preserve" x="554" y="471" clip-path="url(#clipPath18)" stroke="none">in04</text>
      <rect x="724" y="10" clip-path="url(#clipPath19)" fill="rgb(255,245,181)" width="150" height="50" stroke="none" />
      <rect x="724" y="10" clip-path="url(#clipPath19)" fill="none" width="149" height="49" />
      <text xml:space="preserve" x="756" y="31" clip-path="url(#clipPath20)" stroke="none">Theadmin</text>
      <text xml:space="preserve" x="724" y="56" clip-path="url(#clipPath21)" stroke="none">: actAdministrator</text>
      <line clip-path="url(#clipPath22)" fill="none" x1="798" x2="798" y1="60" y2="540" stroke-dasharray="10,10" stroke-width="1.1" />
    </g>
    <g stroke-linecap="butt" fill="rgb(194,239,255)" font-family="'Segoe UI'" stroke-dasharray="10,10" stroke="rgb(194,239,255)" stroke-width="1.1">
      <rect x="789" y="210" clip-path="url(#clipPath23)" width="20" height="40" stroke="none" />
      <rect x="789" y="210" clip-path="url(#clipPath23)" fill="none" width="19" stroke-dasharray="none" height="39" stroke-width="0.1" />
    </g>
    <g stroke-width="0.1" font-size="19" font-family="'Segoe UI'" stroke-linecap="butt">
      <text xml:space="preserve" x="810" y="231" clip-path="url(#clipPath24)" stroke="none">in02</text>
      <line clip-path="url(#clipPath25)" fill="none" x1="533" x2="219" y1="90" y2="90" stroke="rgb(136,136,136)" stroke-width="2.1" />
      <text x="257" y="89" clip-path="url(#clipPath26)" stroke="none" stroke-width="2.1" xml:space="preserve">oeResetPassword("Theuser")</text>
      <line clip-path="url(#clipPath27)" fill="none" x1="226" x2="219" y1="87" y2="90" stroke="rgb(136,136,136)" stroke-width="2.1" />
      <line clip-path="url(#clipPath27)" fill="none" x1="219" x2="226" y1="90" y2="93" stroke="rgb(136,136,136)" stroke-width="2.1" />
      <line clip-path="url(#clipPath25)" fill="none" x1="533" x2="219" y1="270" y2="270" stroke="rgb(136,136,136)" stroke-width="2.1" />
      <text x="241" y="269" clip-path="url(#clipPath28)" stroke="none" stroke-width="2.1" xml:space="preserve">oeLogin("Theuser","7WXC1359")</text>
      <line clip-path="url(#clipPath29)" fill="none" x1="226" x2="219" y1="267" y2="270" stroke="rgb(136,136,136)" stroke-width="2.1" />
      <line clip-path="url(#clipPath29)" fill="none" x1="219" x2="226" y1="270" y2="273" stroke="rgb(136,136,136)" stroke-width="2.1" />
      <line clip-path="url(#clipPath25)" fill="none" x1="533" x2="219" y1="390" y2="390" stroke="rgb(136,136,136)" stroke-width="2.1" />
      <text x="330" y="389" clip-path="url(#clipPath30)" stroke="none" stroke-width="2.1" xml:space="preserve">oeLogout()</text>
      <line clip-path="url(#clipPath31)" fill="none" x1="226" x2="219" y1="387" y2="390" stroke="rgb(136,136,136)" stroke-width="2.1" />
      <line clip-path="url(#clipPath31)" fill="none" x1="219" x2="226" y1="390" y2="393" stroke="rgb(136,136,136)" stroke-width="2.1" />
    </g>
    <g stroke-linecap="butt" font-size="19" fill="rgb(136,136,136)" font-family="'Segoe UI'" stroke-dasharray="5,5" stroke="rgb(136,136,136)" stroke-width="2.1">
      <line clip-path="url(#clipPath25)" fill="none" x1="533" x2="219" y1="150" y2="150" />
      <text x="24" y="149" clip-path="url(#clipPath32)" fill="black" stroke="none" xml:space="preserve">ieMessage(Your password has been reset. Check your mails to be able to reconnect)</text>
      <line clip-path="url(#clipPath33)" fill="none" x1="526" x2="533" y1="153" y2="150" stroke-dasharray="none" />
      <line clip-path="url(#clipPath33)" fill="none" x1="533" x2="526" y1="150" y2="147" stroke-dasharray="none" />
      <line clip-path="url(#clipPath25)" fill="none" x1="789" x2="219" y1="210" y2="210" />
      <text x="230" y="209" clip-path="url(#clipPath34)" fill="black" stroke="none" xml:space="preserve">ieMessage2(The password of the user : "Theuser" has been reset.)</text>
      <line clip-path="url(#clipPath35)" fill="none" x1="782" x2="789" y1="213" y2="210" stroke-dasharray="none" />
      <line clip-path="url(#clipPath35)" fill="none" x1="789" x2="782" y1="210" y2="207" stroke-dasharray="none" />
      <line clip-path="url(#clipPath25)" fill="none" x1="533" x2="219" y1="330" y2="330" />
      <text x="206" y="329" clip-path="url(#clipPath36)" fill="black" stroke="none" xml:space="preserve">ieMessage(You are logged ! Welcome ...)</text>
      <line clip-path="url(#clipPath37)" fill="none" x1="526" x2="533" y1="333" y2="330" stroke-dasharray="none" />
      <line clip-path="url(#clipPath37)" fill="none" x1="533" x2="526" y1="330" y2="327" stroke-dasharray="none" />
      <line clip-path="url(#clipPath25)" fill="none" x1="533" x2="219" y1="450" y2="450" />
      <text x="188" y="449" clip-path="url(#clipPath38)" fill="black" stroke="none" xml:space="preserve">ieMessage(You are logged out ! Good Bye ...)</text>
      <line clip-path="url(#clipPath39)" fill="none" x1="526" x2="533" y1="453" y2="450" stroke-dasharray="none" />
      <line clip-path="url(#clipPath39)" fill="none" x1="533" x2="526" y1="450" y2="447" stroke-dasharray="none" />
    </g>
  </g>
</svg>

