<?xml version="1.0" encoding="UTF-8"?>
<svg xmlns="http://www.w3.org/2000/svg" xmlns:xlink="http://www.w3.org/1999/xlink" stroke-dasharray="none" shape-rendering="auto" font-family="'Dialog'" width="889" text-rendering="auto" fill-opacity="1" contentScriptType="text/ecmascript" color-interpolation="auto" color-rendering="auto" preserveAspectRatio="xMidYMid meet" font-size="12" viewBox="0 0 889 970" fill="black" stroke="black" image-rendering="auto" stroke-miterlimit="10" zoomAndPan="magnify" version="1.0" stroke-linecap="square" stroke-linejoin="miter" contentStyleType="text/css" font-style="normal" height="970" stroke-width="1" stroke-dashoffset="0" font-weight="normal" stroke-opacity="1">
  <!--Generated by the Batik Graphics2D SVG Generator-->
  <defs id="genericDefs" />
  <g>
    <defs id="defs1">
      <clipPath clipPathUnits="userSpaceOnUse" id="clipPath1">
        <path d="M302 9 L374 9 L374 41 L302 41 L302 9 Z" />
      </clipPath>
      <clipPath clipPathUnits="userSpaceOnUse" id="clipPath2">
        <path d="M302 9 L378 9 L378 41 L302 41 L302 9 Z" />
      </clipPath>
      <clipPath clipPathUnits="userSpaceOnUse" id="clipPath3">
        <path d="M332 39 L344 39 L344 961 L332 961 L332 39 Z" />
      </clipPath>
      <clipPath clipPathUnits="userSpaceOnUse" id="clipPath4">
        <path d="M479 9 L642 9 L642 64 L479 64 L479 9 Z" />
      </clipPath>
      <clipPath clipPathUnits="userSpaceOnUse" id="clipPath5">
        <path d="M479 9 L646 9 L646 64 L479 64 L479 9 Z" />
      </clipPath>
      <clipPath clipPathUnits="userSpaceOnUse" id="clipPath6">
        <path d="M554 62 L566 62 L566 961 L554 961 L554 62 Z" />
      </clipPath>
      <clipPath clipPathUnits="userSpaceOnUse" id="clipPath7">
        <path d="M549 89 L571 89 L571 131 L549 131 L549 89 Z" />
      </clipPath>
      <clipPath clipPathUnits="userSpaceOnUse" id="clipPath8">
        <path d="M570 89 L624 89 L624 116 L570 116 L570 89 Z" />
      </clipPath>
      <clipPath clipPathUnits="userSpaceOnUse" id="clipPath9">
        <path d="M549 209 L571 209 L571 251 L549 251 L549 209 Z" />
      </clipPath>
      <clipPath clipPathUnits="userSpaceOnUse" id="clipPath10">
        <path d="M570 209 L624 209 L624 236 L570 236 L570 209 Z" />
      </clipPath>
      <clipPath clipPathUnits="userSpaceOnUse" id="clipPath11">
        <path d="M549 329 L571 329 L571 371 L549 371 L549 329 Z" />
      </clipPath>
      <clipPath clipPathUnits="userSpaceOnUse" id="clipPath12">
        <path d="M570 329 L624 329 L624 356 L570 356 L570 329 Z" />
      </clipPath>
      <clipPath clipPathUnits="userSpaceOnUse" id="clipPath13">
        <path d="M549 509 L571 509 L571 551 L549 551 L549 509 Z" />
      </clipPath>
      <clipPath clipPathUnits="userSpaceOnUse" id="clipPath14">
        <path d="M570 509 L624 509 L624 536 L570 536 L570 509 Z" />
      </clipPath>
      <clipPath clipPathUnits="userSpaceOnUse" id="clipPath15">
        <path d="M549 689 L571 689 L571 731 L549 731 L549 689 Z" />
      </clipPath>
      <clipPath clipPathUnits="userSpaceOnUse" id="clipPath16">
        <path d="M570 689 L624 689 L624 716 L570 716 L570 689 Z" />
      </clipPath>
      <clipPath clipPathUnits="userSpaceOnUse" id="clipPath17">
        <path d="M549 809 L571 809 L571 851 L549 851 L549 809 Z" />
      </clipPath>
      <clipPath clipPathUnits="userSpaceOnUse" id="clipPath18">
        <path d="M570 809 L624 809 L624 836 L570 836 L570 809 Z" />
      </clipPath>
      <clipPath clipPathUnits="userSpaceOnUse" id="clipPath19">
        <path d="M549 149 L571 149 L571 191 L549 191 L549 149 Z" />
      </clipPath>
      <clipPath clipPathUnits="userSpaceOnUse" id="clipPath20">
        <path d="M570 149 L612 149 L612 176 L570 176 L570 149 Z" />
      </clipPath>
      <clipPath clipPathUnits="userSpaceOnUse" id="clipPath21">
        <path d="M549 269 L571 269 L571 311 L549 311 L549 269 Z" />
      </clipPath>
      <clipPath clipPathUnits="userSpaceOnUse" id="clipPath22">
        <path d="M570 269 L612 269 L612 296 L570 296 L570 269 Z" />
      </clipPath>
      <clipPath clipPathUnits="userSpaceOnUse" id="clipPath23">
        <path d="M549 389 L571 389 L571 431 L549 431 L549 389 Z" />
      </clipPath>
      <clipPath clipPathUnits="userSpaceOnUse" id="clipPath24">
        <path d="M570 389 L612 389 L612 416 L570 416 L570 389 Z" />
      </clipPath>
      <clipPath clipPathUnits="userSpaceOnUse" id="clipPath25">
        <path d="M549 449 L571 449 L571 491 L549 491 L549 449 Z" />
      </clipPath>
      <clipPath clipPathUnits="userSpaceOnUse" id="clipPath26">
        <path d="M570 449 L612 449 L612 476 L570 476 L570 449 Z" />
      </clipPath>
      <clipPath clipPathUnits="userSpaceOnUse" id="clipPath27">
        <path d="M549 569 L571 569 L571 611 L549 611 L549 569 Z" />
      </clipPath>
      <clipPath clipPathUnits="userSpaceOnUse" id="clipPath28">
        <path d="M570 569 L612 569 L612 596 L570 596 L570 569 Z" />
      </clipPath>
      <clipPath clipPathUnits="userSpaceOnUse" id="clipPath29">
        <path d="M549 749 L571 749 L571 791 L549 791 L549 749 Z" />
      </clipPath>
      <clipPath clipPathUnits="userSpaceOnUse" id="clipPath30">
        <path d="M570 749 L612 749 L612 776 L570 776 L570 749 Z" />
      </clipPath>
      <clipPath clipPathUnits="userSpaceOnUse" id="clipPath31">
        <path d="M549 869 L571 869 L571 911 L549 911 L549 869 Z" />
      </clipPath>
      <clipPath clipPathUnits="userSpaceOnUse" id="clipPath32">
        <path d="M570 869 L612 869 L612 896 L570 896 L570 869 Z" />
      </clipPath>
      <clipPath clipPathUnits="userSpaceOnUse" id="clipPath33">
        <path d="M667 9 L819 9 L819 61 L667 61 L667 9 Z" />
      </clipPath>
      <clipPath clipPathUnits="userSpaceOnUse" id="clipPath34">
        <path d="M667 9 L824 9 L824 61 L667 61 L667 9 Z" />
      </clipPath>
      <clipPath clipPathUnits="userSpaceOnUse" id="clipPath35">
        <path d="M667 9 L823 9 L823 61 L667 61 L667 9 Z" />
      </clipPath>
      <clipPath clipPathUnits="userSpaceOnUse" id="clipPath36">
        <path d="M737 59 L749 59 L749 961 L737 961 L737 59 Z" />
      </clipPath>
      <clipPath clipPathUnits="userSpaceOnUse" id="clipPath37">
        <path d="M732 629 L754 629 L754 671 L732 671 L732 629 Z" />
      </clipPath>
      <clipPath clipPathUnits="userSpaceOnUse" id="clipPath38">
        <path d="M753 629 L795 629 L795 656 L753 656 L753 629 Z" />
      </clipPath>
      <clipPath clipPathUnits="userSpaceOnUse" id="clipPath39">
        <path d="M-1 -1 L890 -1 L890 971 L-1 971 L-1 -1 Z" />
      </clipPath>
      <clipPath clipPathUnits="userSpaceOnUse" id="clipPath40">
        <path d="M342 67 L550 67 L550 94 L342 94 L342 67 Z" />
      </clipPath>
      <clipPath clipPathUnits="userSpaceOnUse" id="clipPath41">
        <path d="M336 85 L348 85 L348 96 L336 96 L336 85 Z" />
      </clipPath>
      <clipPath clipPathUnits="userSpaceOnUse" id="clipPath42">
        <path d="M342 187 L550 187 L550 214 L342 214 L342 187 Z" />
      </clipPath>
      <clipPath clipPathUnits="userSpaceOnUse" id="clipPath43">
        <path d="M336 205 L348 205 L348 216 L336 216 L336 205 Z" />
      </clipPath>
      <clipPath clipPathUnits="userSpaceOnUse" id="clipPath44">
        <path d="M342 307 L550 307 L550 334 L342 334 L342 307 Z" />
      </clipPath>
      <clipPath clipPathUnits="userSpaceOnUse" id="clipPath45">
        <path d="M336 325 L348 325 L348 336 L336 336 L336 325 Z" />
      </clipPath>
      <clipPath clipPathUnits="userSpaceOnUse" id="clipPath46">
        <path d="M324 487 L569 487 L569 514 L324 514 L324 487 Z" />
      </clipPath>
      <clipPath clipPathUnits="userSpaceOnUse" id="clipPath47">
        <path d="M336 505 L348 505 L348 516 L336 516 L336 505 Z" />
      </clipPath>
      <clipPath clipPathUnits="userSpaceOnUse" id="clipPath48">
        <path d="M295 667 L598 667 L598 694 L295 694 L295 667 Z" />
      </clipPath>
      <clipPath clipPathUnits="userSpaceOnUse" id="clipPath49">
        <path d="M336 685 L348 685 L348 696 L336 696 L336 685 Z" />
      </clipPath>
      <clipPath clipPathUnits="userSpaceOnUse" id="clipPath50">
        <path d="M397 787 L495 787 L495 814 L397 814 L397 787 Z" />
      </clipPath>
      <clipPath clipPathUnits="userSpaceOnUse" id="clipPath51">
        <path d="M336 805 L348 805 L348 816 L336 816 L336 805 Z" />
      </clipPath>
      <clipPath clipPathUnits="userSpaceOnUse" id="clipPath52">
        <path d="M188 127 L704 127 L704 154 L188 154 L188 127 Z" />
      </clipPath>
      <clipPath clipPathUnits="userSpaceOnUse" id="clipPath53">
        <path d="M541 145 L553 145 L553 156 L541 156 L541 145 Z" />
      </clipPath>
      <clipPath clipPathUnits="userSpaceOnUse" id="clipPath54">
        <path d="M188 247 L704 247 L704 274 L188 274 L188 247 Z" />
      </clipPath>
      <clipPath clipPathUnits="userSpaceOnUse" id="clipPath55">
        <path d="M541 265 L553 265 L553 276 L541 276 L541 265 Z" />
      </clipPath>
      <clipPath clipPathUnits="userSpaceOnUse" id="clipPath56">
        <path d="M186 367 L706 367 L706 394 L186 394 L186 367 Z" />
      </clipPath>
      <clipPath clipPathUnits="userSpaceOnUse" id="clipPath57">
        <path d="M541 385 L553 385 L553 396 L541 396 L541 385 Z" />
      </clipPath>
      <clipPath clipPathUnits="userSpaceOnUse" id="clipPath58">
        <path d="M23 427 L870 427 L870 454 L23 454 L23 427 Z" />
      </clipPath>
      <clipPath clipPathUnits="userSpaceOnUse" id="clipPath59">
        <path d="M541 445 L553 445 L553 456 L541 456 L541 445 Z" />
      </clipPath>
      <clipPath clipPathUnits="userSpaceOnUse" id="clipPath60">
        <path d="M91 547 L802 547 L802 574 L91 574 L91 547 Z" />
      </clipPath>
      <clipPath clipPathUnits="userSpaceOnUse" id="clipPath61">
        <path d="M541 565 L553 565 L553 576 L541 576 L541 565 Z" />
      </clipPath>
      <clipPath clipPathUnits="userSpaceOnUse" id="clipPath62">
        <path d="M301 607 L774 607 L774 634 L301 634 L301 607 Z" />
      </clipPath>
      <clipPath clipPathUnits="userSpaceOnUse" id="clipPath63">
        <path d="M724 625 L736 625 L736 636 L724 636 L724 625 Z" />
      </clipPath>
      <clipPath clipPathUnits="userSpaceOnUse" id="clipPath64">
        <path d="M273 727 L620 727 L620 754 L273 754 L273 727 Z" />
      </clipPath>
      <clipPath clipPathUnits="userSpaceOnUse" id="clipPath65">
        <path d="M541 745 L553 745 L553 756 L541 756 L541 745 Z" />
      </clipPath>
      <clipPath clipPathUnits="userSpaceOnUse" id="clipPath66">
        <path d="M255 847 L637 847 L637 874 L255 874 L255 847 Z" />
      </clipPath>
      <clipPath clipPathUnits="userSpaceOnUse" id="clipPath67">
        <path d="M541 865 L553 865 L553 876 L541 876 L541 865 Z" />
      </clipPath>
    </defs>
    <g fill="rgb(238,201,142)" font-family="'Segoe UI'" stroke-linejoin="round" stroke="rgb(238,201,142)" stroke-width="0" stroke-miterlimit="0">
      <rect x="303" y="10" clip-path="url(#clipPath1)" width="70" height="30" stroke="none" />
    </g>
    <g stroke-width="0.1" font-family="'Segoe UI'" stroke-linecap="butt">
      <rect x="303" y="10" clip-path="url(#clipPath1)" fill="none" width="69" height="29" />
      <text x="308" font-size="19" y="33" clip-path="url(#clipPath2)" stroke="none" xml:space="preserve">System</text>
      <line clip-path="url(#clipPath3)" fill="none" x1="337" x2="337" y1="40" y2="960" stroke-dasharray="10,10" stroke-width="1.1" />
    </g>
    <g stroke-linecap="butt" fill="rgb(255,245,181)" font-family="'Segoe UI'" stroke-dasharray="10,10" stroke="rgb(255,245,181)" stroke-width="1.1">
      <rect x="480" y="10" clip-path="url(#clipPath4)" width="161" height="53" stroke="none" />
    </g>
    <g stroke-width="0.1" font-family="'Segoe UI'" stroke-linecap="butt">
      <rect x="480" y="10" clip-path="url(#clipPath4)" fill="none" width="160" height="52" />
      <text x="526" font-size="19" y="32" clip-path="url(#clipPath5)" stroke="none" xml:space="preserve">Theuser</text>
      <text x="484" font-size="19" y="57" clip-path="url(#clipPath5)" stroke="none" xml:space="preserve">: actAuthenticated</text>
      <line clip-path="url(#clipPath6)" fill="none" x1="559" x2="559" y1="63" y2="960" stroke-dasharray="10,10" stroke-width="1.1" />
    </g>
    <g stroke-linecap="butt" fill="rgb(39,76,114)" font-family="'Segoe UI'" stroke-dasharray="10,10" stroke="rgb(39,76,114)" stroke-width="1.1">
      <rect x="550" y="90" clip-path="url(#clipPath7)" width="20" height="40" stroke="none" />
      <rect x="550" y="90" clip-path="url(#clipPath7)" fill="none" width="19" stroke-dasharray="none" height="39" stroke-width="0.1" />
    </g>
    <g stroke-width="0.1" font-size="19" font-family="'Segoe UI'" stroke-linecap="butt">
      <text xml:space="preserve" x="571" y="111" clip-path="url(#clipPath8)" stroke="none">out01</text>
      <rect x="550" y="210" clip-path="url(#clipPath9)" fill="rgb(39,76,114)" width="20" height="40" stroke="none" />
      <rect x="550" y="210" clip-path="url(#clipPath9)" fill="none" width="19" height="39" stroke="rgb(39,76,114)" />
      <text xml:space="preserve" x="571" y="231" clip-path="url(#clipPath10)" stroke="none">out02</text>
      <rect x="550" y="330" clip-path="url(#clipPath11)" fill="rgb(39,76,114)" width="20" height="40" stroke="none" />
      <rect x="550" y="330" clip-path="url(#clipPath11)" fill="none" width="19" height="39" stroke="rgb(39,76,114)" />
      <text xml:space="preserve" x="571" y="351" clip-path="url(#clipPath12)" stroke="none">out03</text>
      <rect x="550" y="510" clip-path="url(#clipPath13)" fill="rgb(39,76,114)" width="20" height="40" stroke="none" />
      <rect x="550" y="510" clip-path="url(#clipPath13)" fill="none" width="19" height="39" stroke="rgb(39,76,114)" />
      <text xml:space="preserve" x="571" y="531" clip-path="url(#clipPath14)" stroke="none">out04</text>
      <rect x="550" y="690" clip-path="url(#clipPath15)" fill="rgb(39,76,114)" width="20" height="40" stroke="none" />
      <rect x="550" y="690" clip-path="url(#clipPath15)" fill="none" width="19" height="39" stroke="rgb(39,76,114)" />
      <text xml:space="preserve" x="571" y="711" clip-path="url(#clipPath16)" stroke="none">out05</text>
      <rect x="550" y="810" clip-path="url(#clipPath17)" fill="rgb(39,76,114)" width="20" height="40" stroke="none" />
      <rect x="550" y="810" clip-path="url(#clipPath17)" fill="none" width="19" height="39" stroke="rgb(39,76,114)" />
      <text xml:space="preserve" x="571" y="831" clip-path="url(#clipPath18)" stroke="none">out06</text>
      <rect x="550" y="150" clip-path="url(#clipPath19)" fill="rgb(194,239,255)" width="20" height="40" stroke="none" />
      <rect x="550" y="150" clip-path="url(#clipPath19)" fill="none" width="19" height="39" stroke="rgb(194,239,255)" />
      <text xml:space="preserve" x="571" y="171" clip-path="url(#clipPath20)" stroke="none">in01</text>
      <rect x="550" y="270" clip-path="url(#clipPath21)" fill="rgb(194,239,255)" width="20" height="40" stroke="none" />
      <rect x="550" y="270" clip-path="url(#clipPath21)" fill="none" width="19" height="39" stroke="rgb(194,239,255)" />
      <text xml:space="preserve" x="571" y="291" clip-path="url(#clipPath22)" stroke="none">in02</text>
      <rect x="550" y="390" clip-path="url(#clipPath23)" fill="rgb(194,239,255)" width="20" height="40" stroke="none" />
      <rect x="550" y="390" clip-path="url(#clipPath23)" fill="none" width="19" height="39" stroke="rgb(194,239,255)" />
      <text xml:space="preserve" x="571" y="411" clip-path="url(#clipPath24)" stroke="none">in03</text>
      <rect x="550" y="450" clip-path="url(#clipPath25)" fill="rgb(194,239,255)" width="20" height="40" stroke="none" />
      <rect x="550" y="450" clip-path="url(#clipPath25)" fill="none" width="19" height="39" stroke="rgb(194,239,255)" />
      <text xml:space="preserve" x="571" y="471" clip-path="url(#clipPath26)" stroke="none">in04</text>
      <rect x="550" y="570" clip-path="url(#clipPath27)" fill="rgb(194,239,255)" width="20" height="40" stroke="none" />
      <rect x="550" y="570" clip-path="url(#clipPath27)" fill="none" width="19" height="39" stroke="rgb(194,239,255)" />
      <text xml:space="preserve" x="571" y="591" clip-path="url(#clipPath28)" stroke="none">in05</text>
      <rect x="550" y="750" clip-path="url(#clipPath29)" fill="rgb(194,239,255)" width="20" height="40" stroke="none" />
      <rect x="550" y="750" clip-path="url(#clipPath29)" fill="none" width="19" height="39" stroke="rgb(194,239,255)" />
      <text xml:space="preserve" x="571" y="771" clip-path="url(#clipPath30)" stroke="none">in07</text>
      <rect x="550" y="870" clip-path="url(#clipPath31)" fill="rgb(194,239,255)" width="20" height="40" stroke="none" />
      <rect x="550" y="870" clip-path="url(#clipPath31)" fill="none" width="19" height="39" stroke="rgb(194,239,255)" />
      <text xml:space="preserve" x="571" y="891" clip-path="url(#clipPath32)" stroke="none">in08</text>
      <rect x="668" y="10" clip-path="url(#clipPath33)" fill="rgb(255,245,181)" width="150" height="50" stroke="none" />
      <rect x="668" y="10" clip-path="url(#clipPath33)" fill="none" width="149" height="49" />
      <text xml:space="preserve" x="700" y="31" clip-path="url(#clipPath34)" stroke="none">Theadmin</text>
      <text xml:space="preserve" x="668" y="56" clip-path="url(#clipPath35)" stroke="none">: actAdministrator</text>
      <line clip-path="url(#clipPath36)" fill="none" x1="742" x2="742" y1="60" y2="960" stroke-dasharray="10,10" stroke-width="1.1" />
    </g>
    <g stroke-linecap="butt" fill="rgb(194,239,255)" font-family="'Segoe UI'" stroke-dasharray="10,10" stroke="rgb(194,239,255)" stroke-width="1.1">
      <rect x="733" y="630" clip-path="url(#clipPath37)" width="20" height="40" stroke="none" />
      <rect x="733" y="630" clip-path="url(#clipPath37)" fill="none" width="19" stroke-dasharray="none" height="39" stroke-width="0.1" />
    </g>
    <g stroke-width="0.1" font-size="19" font-family="'Segoe UI'" stroke-linecap="butt">
      <text xml:space="preserve" x="754" y="651" clip-path="url(#clipPath38)" stroke="none">in06</text>
      <line clip-path="url(#clipPath39)" fill="none" x1="550" x2="338" y1="90" y2="90" stroke="rgb(136,136,136)" stroke-width="2.1" />
      <text x="343" y="89" clip-path="url(#clipPath40)" stroke="none" stroke-width="2.1" xml:space="preserve">oeLogin("failed","login")</text>
      <line clip-path="url(#clipPath41)" fill="none" x1="345" x2="338" y1="87" y2="90" stroke="rgb(136,136,136)" stroke-width="2.1" />
      <line clip-path="url(#clipPath41)" fill="none" x1="338" x2="345" y1="90" y2="93" stroke="rgb(136,136,136)" stroke-width="2.1" />
      <line clip-path="url(#clipPath39)" fill="none" x1="550" x2="338" y1="210" y2="210" stroke="rgb(136,136,136)" stroke-width="2.1" />
      <text x="343" y="209" clip-path="url(#clipPath42)" stroke="none" stroke-width="2.1" xml:space="preserve">oeLogin("failed","login")</text>
      <line clip-path="url(#clipPath43)" fill="none" x1="345" x2="338" y1="207" y2="210" stroke="rgb(136,136,136)" stroke-width="2.1" />
      <line clip-path="url(#clipPath43)" fill="none" x1="338" x2="345" y1="210" y2="213" stroke="rgb(136,136,136)" stroke-width="2.1" />
      <line clip-path="url(#clipPath39)" fill="none" x1="550" x2="338" y1="330" y2="330" stroke="rgb(136,136,136)" stroke-width="2.1" />
      <text x="343" y="329" clip-path="url(#clipPath44)" stroke="none" stroke-width="2.1" xml:space="preserve">oeLogin("failed","login")</text>
      <line clip-path="url(#clipPath45)" fill="none" x1="345" x2="338" y1="327" y2="330" stroke="rgb(136,136,136)" stroke-width="2.1" />
      <line clip-path="url(#clipPath45)" fill="none" x1="338" x2="345" y1="330" y2="333" stroke="rgb(136,136,136)" stroke-width="2.1" />
      <line clip-path="url(#clipPath39)" fill="none" x1="550" x2="338" y1="510" y2="510" stroke="rgb(136,136,136)" stroke-width="2.1" />
      <text x="325" y="509" clip-path="url(#clipPath46)" stroke="none" stroke-width="2.1" xml:space="preserve">oeResetPassword("Theuser")</text>
      <line clip-path="url(#clipPath47)" fill="none" x1="345" x2="338" y1="507" y2="510" stroke="rgb(136,136,136)" stroke-width="2.1" />
      <line clip-path="url(#clipPath47)" fill="none" x1="338" x2="345" y1="510" y2="513" stroke="rgb(136,136,136)" stroke-width="2.1" />
      <line clip-path="url(#clipPath39)" fill="none" x1="550" x2="338" y1="690" y2="690" stroke="rgb(136,136,136)" stroke-width="2.1" />
      <text x="296" y="689" clip-path="url(#clipPath48)" stroke="none" stroke-width="2.1" xml:space="preserve">oeLogin("Theuser","NewPassword")</text>
      <line clip-path="url(#clipPath49)" fill="none" x1="345" x2="338" y1="687" y2="690" stroke="rgb(136,136,136)" stroke-width="2.1" />
      <line clip-path="url(#clipPath49)" fill="none" x1="338" x2="345" y1="690" y2="693" stroke="rgb(136,136,136)" stroke-width="2.1" />
      <line clip-path="url(#clipPath39)" fill="none" x1="550" x2="338" y1="810" y2="810" stroke="rgb(136,136,136)" stroke-width="2.1" />
      <text x="398" y="809" clip-path="url(#clipPath50)" stroke="none" stroke-width="2.1" xml:space="preserve">oeLogout()</text>
      <line clip-path="url(#clipPath51)" fill="none" x1="345" x2="338" y1="807" y2="810" stroke="rgb(136,136,136)" stroke-width="2.1" />
      <line clip-path="url(#clipPath51)" fill="none" x1="338" x2="345" y1="810" y2="813" stroke="rgb(136,136,136)" stroke-width="2.1" />
    </g>
    <g stroke-linecap="butt" font-size="19" fill="rgb(136,136,136)" font-family="'Segoe UI'" stroke-dasharray="5,5" stroke="rgb(136,136,136)" stroke-width="2.1">
      <line clip-path="url(#clipPath39)" fill="none" x1="550" x2="338" y1="150" y2="150" />
      <text x="189" y="149" clip-path="url(#clipPath52)" fill="black" stroke="none" xml:space="preserve">ieMessage(Your password is not correct. Wrong attempts : 1)</text>
      <line clip-path="url(#clipPath53)" fill="none" x1="543" x2="550" y1="153" y2="150" stroke-dasharray="none" />
      <line clip-path="url(#clipPath53)" fill="none" x1="550" x2="543" y1="150" y2="147" stroke-dasharray="none" />
      <line clip-path="url(#clipPath39)" fill="none" x1="550" x2="338" y1="270" y2="270" />
      <text x="189" y="269" clip-path="url(#clipPath54)" fill="black" stroke="none" xml:space="preserve">ieMessage(Your password is not correct. Wrong attempts : 2)</text>
      <line clip-path="url(#clipPath55)" fill="none" x1="543" x2="550" y1="273" y2="270" stroke-dasharray="none" />
      <line clip-path="url(#clipPath55)" fill="none" x1="550" x2="543" y1="270" y2="267" stroke-dasharray="none" />
      <line clip-path="url(#clipPath39)" fill="none" x1="550" x2="338" y1="390" y2="390" />
      <text x="187" y="389" clip-path="url(#clipPath56)" fill="black" stroke="none" xml:space="preserve">ieMessage(Your password is not correct. Wrong attempts : 3.)</text>
      <line clip-path="url(#clipPath57)" fill="none" x1="543" x2="550" y1="393" y2="390" stroke-dasharray="none" />
      <line clip-path="url(#clipPath57)" fill="none" x1="550" x2="543" y1="390" y2="387" stroke-dasharray="none" />
      <line clip-path="url(#clipPath39)" fill="none" x1="550" x2="338" y1="450" y2="450" />
      <text x="24" y="449" clip-path="url(#clipPath58)" fill="black" stroke="none" xml:space="preserve">ieMessage(You need to fill out a captcha to be able to login now. You can also do a password reset.)</text>
      <line clip-path="url(#clipPath59)" fill="none" x1="543" x2="550" y1="453" y2="450" stroke-dasharray="none" />
      <line clip-path="url(#clipPath59)" fill="none" x1="550" x2="543" y1="450" y2="447" stroke-dasharray="none" />
      <line clip-path="url(#clipPath39)" fill="none" x1="550" x2="338" y1="570" y2="570" />
      <text x="92" y="569" clip-path="url(#clipPath60)" fill="black" stroke="none" xml:space="preserve">ieMessage(Your password has been reset. Check your mails to be able to reconnect)</text>
      <line clip-path="url(#clipPath61)" fill="none" x1="543" x2="550" y1="573" y2="570" stroke-dasharray="none" />
      <line clip-path="url(#clipPath61)" fill="none" x1="550" x2="543" y1="570" y2="567" stroke-dasharray="none" />
      <line clip-path="url(#clipPath39)" fill="none" x1="733" x2="338" y1="630" y2="630" />
      <text x="302" y="629" clip-path="url(#clipPath62)" fill="black" stroke="none" xml:space="preserve">ieMessage2(The password of "Theuser" has been reset )</text>
      <line clip-path="url(#clipPath63)" fill="none" x1="726" x2="733" y1="633" y2="630" stroke-dasharray="none" />
      <line clip-path="url(#clipPath63)" fill="none" x1="733" x2="726" y1="630" y2="627" stroke-dasharray="none" />
      <line clip-path="url(#clipPath39)" fill="none" x1="550" x2="338" y1="750" y2="750" />
      <text x="274" y="749" clip-path="url(#clipPath64)" fill="black" stroke="none" xml:space="preserve">ieMessage(You are logged ! Welcome ...)</text>
      <line clip-path="url(#clipPath65)" fill="none" x1="543" x2="550" y1="753" y2="750" stroke-dasharray="none" />
      <line clip-path="url(#clipPath65)" fill="none" x1="550" x2="543" y1="750" y2="747" stroke-dasharray="none" />
      <line clip-path="url(#clipPath39)" fill="none" x1="550" x2="338" y1="870" y2="870" />
      <text x="256" y="869" clip-path="url(#clipPath66)" fill="black" stroke="none" xml:space="preserve">ieMessage(You are logged out ! Good Bye ...)</text>
      <line clip-path="url(#clipPath67)" fill="none" x1="543" x2="550" y1="873" y2="870" stroke-dasharray="none" />
      <line clip-path="url(#clipPath67)" fill="none" x1="550" x2="543" y1="870" y2="867" stroke-dasharray="none" />
    </g>
  </g>
</svg>

