<?xml version="1.0" encoding="UTF-8"?>
<svg xmlns="http://www.w3.org/2000/svg" xmlns:xlink="http://www.w3.org/1999/xlink" stroke-dasharray="none" shape-rendering="auto" font-family="'Dialog'" width="564" text-rendering="auto" fill-opacity="1" contentScriptType="text/ecmascript" color-interpolation="auto" color-rendering="auto" preserveAspectRatio="xMidYMid meet" font-size="12" viewBox="0 0 564 430" fill="black" stroke="black" image-rendering="auto" stroke-miterlimit="10" zoomAndPan="magnify" version="1.0" stroke-linecap="square" stroke-linejoin="miter" contentStyleType="text/css" font-style="normal" height="430" stroke-width="1" stroke-dashoffset="0" font-weight="normal" stroke-opacity="1">
  <!--Generated by the Batik Graphics2D SVG Generator-->
  <defs id="genericDefs" />
  <g>
    <defs id="defs1">
      <clipPath clipPathUnits="userSpaceOnUse" id="clipPath1">
        <path d="M9 9 L81 9 L81 41 L9 41 L9 9 Z" />
      </clipPath>
      <clipPath clipPathUnits="userSpaceOnUse" id="clipPath2">
        <path d="M9 9 L85 9 L85 41 L9 41 L9 9 Z" />
      </clipPath>
      <clipPath clipPathUnits="userSpaceOnUse" id="clipPath3">
        <path d="M39 39 L51 39 L51 421 L39 421 L39 39 Z" />
      </clipPath>
      <clipPath clipPathUnits="userSpaceOnUse" id="clipPath4">
        <path d="M403 9 L555 9 L555 61 L403 61 L403 9 Z" />
      </clipPath>
      <clipPath clipPathUnits="userSpaceOnUse" id="clipPath5">
        <path d="M403 9 L559 9 L559 61 L403 61 L403 9 Z" />
      </clipPath>
      <clipPath clipPathUnits="userSpaceOnUse" id="clipPath6">
        <path d="M473 59 L485 59 L485 421 L473 421 L473 59 Z" />
      </clipPath>
      <clipPath clipPathUnits="userSpaceOnUse" id="clipPath7">
        <path d="M468 89 L490 89 L490 131 L468 131 L468 89 Z" />
      </clipPath>
      <clipPath clipPathUnits="userSpaceOnUse" id="clipPath8">
        <path d="M489 89 L543 89 L543 116 L489 116 L489 89 Z" />
      </clipPath>
      <clipPath clipPathUnits="userSpaceOnUse" id="clipPath9">
        <path d="M468 149 L490 149 L490 191 L468 191 L468 149 Z" />
      </clipPath>
      <clipPath clipPathUnits="userSpaceOnUse" id="clipPath10">
        <path d="M489 149 L543 149 L543 176 L489 176 L489 149 Z" />
      </clipPath>
      <clipPath clipPathUnits="userSpaceOnUse" id="clipPath11">
        <path d="M468 269 L490 269 L490 311 L468 311 L468 269 Z" />
      </clipPath>
      <clipPath clipPathUnits="userSpaceOnUse" id="clipPath12">
        <path d="M489 269 L543 269 L543 296 L489 296 L489 269 Z" />
      </clipPath>
      <clipPath clipPathUnits="userSpaceOnUse" id="clipPath13">
        <path d="M468 209 L490 209 L490 251 L468 251 L468 209 Z" />
      </clipPath>
      <clipPath clipPathUnits="userSpaceOnUse" id="clipPath14">
        <path d="M489 209 L531 209 L531 236 L489 236 L489 209 Z" />
      </clipPath>
      <clipPath clipPathUnits="userSpaceOnUse" id="clipPath15">
        <path d="M468 329 L490 329 L490 371 L468 371 L468 329 Z" />
      </clipPath>
      <clipPath clipPathUnits="userSpaceOnUse" id="clipPath16">
        <path d="M489 329 L531 329 L531 356 L489 356 L489 329 Z" />
      </clipPath>
      <clipPath clipPathUnits="userSpaceOnUse" id="clipPath17">
        <path d="M-1 -1 L565 -1 L565 431 L-1 431 L-1 -1 Z" />
      </clipPath>
      <clipPath clipPathUnits="userSpaceOnUse" id="clipPath18">
        <path d="M146 67 L372 67 L372 94 L146 94 L146 67 Z" />
      </clipPath>
      <clipPath clipPathUnits="userSpaceOnUse" id="clipPath19">
        <path d="M43 85 L55 85 L55 96 L43 96 L43 85 Z" />
      </clipPath>
      <clipPath clipPathUnits="userSpaceOnUse" id="clipPath20">
        <path d="M53 127 L466 127 L466 154 L53 154 L53 127 Z" />
      </clipPath>
      <clipPath clipPathUnits="userSpaceOnUse" id="clipPath21">
        <path d="M43 145 L55 145 L55 156 L43 156 L43 145 Z" />
      </clipPath>
      <clipPath clipPathUnits="userSpaceOnUse" id="clipPath22">
        <path d="M98 247 L420 247 L420 274 L98 274 L98 247 Z" />
      </clipPath>
      <clipPath clipPathUnits="userSpaceOnUse" id="clipPath23">
        <path d="M43 265 L55 265 L55 276 L43 276 L43 265 Z" />
      </clipPath>
      <clipPath clipPathUnits="userSpaceOnUse" id="clipPath24">
        <path d="M164 187 L354 187 L354 214 L164 214 L164 187 Z" />
      </clipPath>
      <clipPath clipPathUnits="userSpaceOnUse" id="clipPath25">
        <path d="M460 205 L472 205 L472 216 L460 216 L460 205 Z" />
      </clipPath>
      <clipPath clipPathUnits="userSpaceOnUse" id="clipPath26">
        <path d="M196 307 L323 307 L323 334 L196 334 L196 307 Z" />
      </clipPath>
      <clipPath clipPathUnits="userSpaceOnUse" id="clipPath27">
        <path d="M460 325 L472 325 L472 336 L460 336 L460 325 Z" />
      </clipPath>
    </defs>
    <g fill="rgb(238,201,142)" font-family="'Segoe UI'" stroke-linejoin="round" stroke="rgb(238,201,142)" stroke-width="0" stroke-miterlimit="0">
      <rect x="10" y="10" clip-path="url(#clipPath1)" width="70" height="30" stroke="none" />
    </g>
    <g stroke-width="0.1" font-family="'Segoe UI'" stroke-linecap="butt">
      <rect x="10" y="10" clip-path="url(#clipPath1)" fill="none" width="69" height="29" />
      <text x="15" font-size="19" y="33" clip-path="url(#clipPath2)" stroke="none" xml:space="preserve">System</text>
      <line clip-path="url(#clipPath3)" fill="none" x1="44" x2="44" y1="40" y2="420" stroke-dasharray="10,10" stroke-width="1.1" />
    </g>
    <g stroke-linecap="butt" fill="rgb(255,245,181)" font-family="'Segoe UI'" stroke-dasharray="10,10" stroke="rgb(255,245,181)" stroke-width="1.1">
      <rect x="404" y="10" clip-path="url(#clipPath4)" width="150" height="50" stroke="none" />
    </g>
    <g stroke-width="0.1" font-family="'Segoe UI'" stroke-linecap="butt">
      <rect x="404" y="10" clip-path="url(#clipPath4)" fill="none" width="149" height="49" />
      <text x="456" font-size="19" y="31" clip-path="url(#clipPath5)" stroke="none" xml:space="preserve">jorge</text>
      <text x="404" font-size="19" y="56" clip-path="url(#clipPath5)" stroke="none" xml:space="preserve">: actAdministrator</text>
      <line clip-path="url(#clipPath6)" fill="none" x1="478" x2="478" y1="60" y2="420" stroke-dasharray="10,10" stroke-width="1.1" />
    </g>
    <g stroke-linecap="butt" fill="rgb(39,76,114)" font-family="'Segoe UI'" stroke-dasharray="10,10" stroke="rgb(39,76,114)" stroke-width="1.1">
      <rect x="469" y="90" clip-path="url(#clipPath7)" width="20" height="40" stroke="none" />
      <rect x="469" y="90" clip-path="url(#clipPath7)" fill="none" width="19" stroke-dasharray="none" height="39" stroke-width="0.1" />
    </g>
    <g stroke-width="0.1" font-size="19" font-family="'Segoe UI'" stroke-linecap="butt">
      <text xml:space="preserve" x="490" y="111" clip-path="url(#clipPath8)" stroke="none">out01</text>
      <rect x="469" y="150" clip-path="url(#clipPath9)" fill="rgb(39,76,114)" width="20" height="40" stroke="none" />
      <rect x="469" y="150" clip-path="url(#clipPath9)" fill="none" width="19" height="39" stroke="rgb(39,76,114)" />
      <text xml:space="preserve" x="490" y="171" clip-path="url(#clipPath10)" stroke="none">out02</text>
      <rect x="469" y="270" clip-path="url(#clipPath11)" fill="rgb(39,76,114)" width="20" height="40" stroke="none" />
      <rect x="469" y="270" clip-path="url(#clipPath11)" fill="none" width="19" height="39" stroke="rgb(39,76,114)" />
      <text xml:space="preserve" x="490" y="291" clip-path="url(#clipPath12)" stroke="none">out03</text>
      <rect x="469" y="210" clip-path="url(#clipPath13)" fill="rgb(194,239,255)" width="20" height="40" stroke="none" />
      <rect x="469" y="210" clip-path="url(#clipPath13)" fill="none" width="19" height="39" stroke="rgb(194,239,255)" />
      <text xml:space="preserve" x="490" y="231" clip-path="url(#clipPath14)" stroke="none">in01</text>
      <rect x="469" y="330" clip-path="url(#clipPath15)" fill="rgb(194,239,255)" width="20" height="40" stroke="none" />
      <rect x="469" y="330" clip-path="url(#clipPath15)" fill="none" width="19" height="39" stroke="rgb(194,239,255)" />
      <text xml:space="preserve" x="490" y="351" clip-path="url(#clipPath16)" stroke="none">in02</text>
      <line clip-path="url(#clipPath17)" fill="none" x1="469" x2="45" y1="90" y2="90" stroke="rgb(136,136,136)" stroke-width="2.1" />
      <text x="147" y="89" clip-path="url(#clipPath18)" stroke="none" stroke-width="2.1" xml:space="preserve">uciugSecurelyUseSystem()</text>
      <line clip-path="url(#clipPath19)" fill="none" x1="52" x2="45" y1="87" y2="90" stroke="rgb(136,136,136)" stroke-width="2.1" />
      <line clip-path="url(#clipPath19)" fill="none" x1="45" x2="52" y1="90" y2="93" stroke="rgb(136,136,136)" stroke-width="2.1" />
      <line clip-path="url(#clipPath17)" fill="none" x1="469" x2="45" y1="150" y2="150" stroke="rgb(136,136,136)" stroke-width="2.1" />
      <text x="54" y="149" clip-path="url(#clipPath20)" stroke="none" stroke-width="2.1" xml:space="preserve">oeAddCoordinator("coordID1","steve","abcdefg")</text>
      <line clip-path="url(#clipPath21)" fill="none" x1="52" x2="45" y1="147" y2="150" stroke="rgb(136,136,136)" stroke-width="2.1" />
      <line clip-path="url(#clipPath21)" fill="none" x1="45" x2="52" y1="150" y2="153" stroke="rgb(136,136,136)" stroke-width="2.1" />
      <line clip-path="url(#clipPath17)" fill="none" x1="469" x2="45" y1="270" y2="270" stroke="rgb(136,136,136)" stroke-width="2.1" />
      <text x="99" y="269" clip-path="url(#clipPath22)" stroke="none" stroke-width="2.1" xml:space="preserve">oeRankDownCoordinator("coordID1")</text>
      <line clip-path="url(#clipPath23)" fill="none" x1="52" x2="45" y1="267" y2="270" stroke="rgb(136,136,136)" stroke-width="2.1" />
      <line clip-path="url(#clipPath23)" fill="none" x1="45" x2="52" y1="270" y2="273" stroke="rgb(136,136,136)" stroke-width="2.1" />
    </g>
    <g stroke-linecap="butt" font-size="19" fill="rgb(136,136,136)" font-family="'Segoe UI'" stroke-dasharray="5,5" stroke="rgb(136,136,136)" stroke-width="2.1">
      <line clip-path="url(#clipPath17)" fill="none" x1="469" x2="45" y1="210" y2="210" />
      <text x="165" y="209" clip-path="url(#clipPath24)" fill="black" stroke="none" xml:space="preserve">ieCoordinatorAdded()</text>
      <line clip-path="url(#clipPath25)" fill="none" x1="462" x2="469" y1="213" y2="210" stroke-dasharray="none" />
      <line clip-path="url(#clipPath25)" fill="none" x1="469" x2="462" y1="210" y2="207" stroke-dasharray="none" />
      <line clip-path="url(#clipPath17)" fill="none" x1="469" x2="45" y1="330" y2="330" />
      <text x="197" y="329" clip-path="url(#clipPath26)" fill="black" stroke="none" xml:space="preserve">ieRankEdited()</text>
      <line clip-path="url(#clipPath27)" fill="none" x1="462" x2="469" y1="333" y2="330" stroke-dasharray="none" />
      <line clip-path="url(#clipPath27)" fill="none" x1="469" x2="462" y1="330" y2="327" stroke-dasharray="none" />
    </g>
  </g>
</svg>

